<?xml version="1.0" standalone="no"?>
<!DOCTYPE svg PUBLIC "-//W3C//DTD SVG 20010904//EN"
 "http://www.w3.org/TR/2001/REC-SVG-20010904/DTD/svg10.dtd">
<svg version="1.0" xmlns="http://www.w3.org/2000/svg"
 width="5204.000000pt" height="5204.000000pt" viewBox="0 0 5204.000000 5204.000000"
 preserveAspectRatio="xMidYMid meet">
<metadata>
Created by potrace 1.14, written by Peter Selinger 2001-2017
</metadata>
<g transform="translate(0.000000,5204.000000) scale(0.100000,-0.100000)"
fill="#000000" stroke="none">
<path d="M26200 34285 c-10 -12 -16 -13 -28 -3 -10 8 -13 8 -9 2 4 -7 -1 -18
-10 -25 -10 -8 -14 -9 -10 -2 5 8 0 11 -13 10 -14 -1 -19 -6 -15 -17 5 -11 3
-12 -6 -3 -6 6 -18 9 -27 6 -10 -4 -13 -2 -8 5 5 8 2 10 -8 6 -9 -3 -14 -9
-11 -13 2 -4 -2 -8 -10 -8 -8 0 -12 4 -9 9 3 4 0 8 -5 8 -6 0 -11 -8 -12 -17
0 -11 -3 -13 -6 -5 -6 15 -33 16 -33 1 0 -5 -4 -8 -9 -5 -5 4 -12 0 -14 -6 -4
-10 -6 -10 -6 0 -1 7 -6 10 -13 6 -7 -4 -8 -3 -4 5 4 6 11 9 16 6 5 -3 11 -2
14 3 2 4 -8 8 -24 7 -16 0 -26 -4 -22 -10 3 -5 -4 -2 -15 8 -16 14 -23 15 -29
6 -5 -8 -3 -10 6 -4 8 5 11 4 6 -3 -4 -6 -13 -9 -21 -6 -8 4 -12 10 -9 15 3 5
-2 6 -10 3 -9 -3 -13 -11 -9 -18 4 -6 -1 -5 -10 3 -15 12 -17 11 -17 -5 0 -16
-2 -17 -10 -4 -5 8 -10 11 -10 5 0 -13 -53 -16 -61 -3 -4 5 -9 3 -12 -7 -5
-10 -3 -14 5 -9 7 4 8 3 4 -5 -6 -9 -11 -9 -21 -1 -10 8 -15 8 -20 0 -4 -6
-14 -10 -23 -8 -25 4 -42 -10 -35 -30 6 -15 4 -15 -15 2 -19 16 -22 17 -28 3
-3 -8 -12 -18 -20 -21 -9 -3 -12 -1 -9 4 3 6 1 10 -4 10 -6 0 -11 -5 -11 -11
0 -5 -4 -8 -9 -4 -5 3 -12 1 -16 -5 -4 -6 -11 -8 -16 -4 -5 3 -8 0 -7 -7 2 -6
-3 -14 -11 -17 -9 -3 -11 0 -6 9 5 7 -6 2 -24 -10 -27 -20 -35 -21 -42 -10 -7
12 -9 12 -9 -1 0 -13 -1 -13 -11 0 -9 12 -10 11 -6 -7 4 -19 3 -20 -14 -10
-15 9 -25 8 -49 -6 -16 -10 -30 -15 -30 -11 0 3 -6 2 -13 -5 -10 -8 -17 -7
-26 2 -11 9 -14 9 -18 0 -3 -7 -9 -13 -14 -13 -6 0 -7 6 -3 13 6 9 5 9 -7 0
-8 -7 -24 -12 -34 -12 -51 0 -133 -9 -144 -15 -6 -4 -11 -3 -11 3 0 7 -8 7
-25 -1 -13 -6 -22 -15 -19 -19 5 -8 -10 -13 -29 -10 -4 1 -10 -6 -13 -14 -3
-8 -10 -12 -15 -9 -5 3 -9 0 -9 -6 0 -7 -7 -10 -15 -6 -18 6 -20 -15 -3 -32 7
-7 17 -8 29 -2 12 7 20 6 25 -2 4 -6 3 -8 -4 -4 -6 3 -14 1 -17 -5 -4 -5 -13
-8 -20 -5 -7 2 -15 -4 -18 -15 -3 -11 -11 -18 -19 -17 -8 2 -12 -5 -10 -17 2
-16 1 -17 -7 -5 -6 8 -11 11 -11 6 0 -5 -6 -3 -13 3 -8 6 -17 7 -22 3 -4 -4
-4 4 -1 18 6 21 5 22 -4 7 -12 -19 -4 -41 11 -32 5 4 9 1 9 -6 0 -7 -8 -9 -21
-6 -20 5 -20 5 -3 -16 10 -12 12 -16 4 -9 -8 6 -22 12 -32 12 -16 0 -17 -2 -6
-14 7 -8 16 -12 20 -10 11 7 0 -38 -12 -50 -8 -8 -9 -6 -5 7 4 10 2 17 -4 17
-6 0 -11 -5 -11 -11 0 -5 -4 -7 -10 -4 -5 3 -10 1 -10 -6 0 -7 -3 -10 -6 -7
-12 13 16 47 34 41 10 -4 14 -2 9 3 -11 11 -78 13 -71 2 3 -4 0 -9 -5 -9 -6
-1 -17 -2 -23 -3 -7 -1 -12 -7 -11 -14 3 -12 -51 -45 -59 -36 -3 2 -4 -7 -2
-21 2 -21 -1 -25 -17 -20 -11 4 -19 2 -19 -6 0 -8 -5 -7 -17 2 -15 13 -15 12
-2 -9 12 -20 15 -21 26 -7 7 11 13 13 18 5 5 -8 12 -7 23 2 15 12 16 11 4 -4
-8 -10 -20 -14 -30 -11 -15 6 -16 5 -2 -13 14 -17 14 -18 -1 -6 -13 10 -18 10
-28 -1 -13 -17 -44 -15 -68 4 -17 13 -17 13 -3 -5 13 -18 13 -19 -1 -14 -13 5
-15 1 -12 -20 4 -21 2 -24 -6 -12 -10 13 -11 13 -12 0 -1 -8 -1 -18 0 -22 0
-5 -4 -8 -9 -8 -6 0 -9 10 -7 23 2 12 2 16 0 8 -4 -12 -6 -12 -14 0 -7 10 -8
6 -5 -13 3 -15 0 -30 -5 -34 -5 -3 -6 -10 -3 -16 4 -6 3 -8 -3 -5 -5 4 -24
-10 -41 -29 -18 -20 -32 -32 -32 -27 0 5 -9 9 -20 10 -14 1 -20 -4 -20 -18 0
-10 -5 -19 -11 -19 -5 0 -8 4 -5 8 3 5 -1 9 -9 9 -9 0 -14 -5 -13 -11 2 -6 -2
-12 -7 -12 -16 -2 -35 7 -31 15 3 4 -6 7 -19 7 -14 0 -22 -2 -19 -5 3 -4 11
-6 17 -6 7 0 12 -15 13 -34 0 -31 -1 -32 -14 -15 -12 15 -14 16 -9 2 4 -11 -3
-20 -24 -28 -16 -7 -32 -17 -35 -22 -4 -6 3 -5 15 2 26 13 67 23 57 12 -4 -4
-11 -7 -14 -7 -4 -1 -17 -7 -30 -14 -13 -7 -30 -10 -37 -7 -10 3 -12 0 -8 -11
4 -9 2 -14 -3 -10 -6 3 -11 -3 -11 -14 -2 -16 1 -18 12 -9 10 8 15 8 21 -2 4
-7 4 -10 -1 -6 -4 4 -15 3 -22 -4 -11 -9 -16 -9 -22 1 -9 14 -20 -5 -28 -44
-4 -19 -3 -19 11 0 8 11 12 24 9 30 -3 5 0 4 8 -3 12 -11 12 -14 -1 -22 -12
-8 -12 -12 -2 -18 9 -6 3 -9 -18 -10 -19 0 -28 3 -24 10 4 7 2 8 -4 4 -7 -4
-17 -17 -22 -29 -10 -20 -10 -21 3 -4 11 13 17 15 22 6 4 -6 2 -15 -5 -19 -6
-4 -12 -11 -12 -16 1 -5 -6 -8 -14 -6 -16 3 -19 -15 -3 -20 5 -2 -6 -11 -25
-19 -20 -9 -34 -13 -31 -9 2 4 -3 7 -11 7 -9 0 -13 -6 -9 -14 3 -8 5 -17 5
-19 0 -3 5 -2 12 2 7 4 8 3 4 -5 -4 -6 -11 -9 -16 -6 -4 3 -13 -2 -20 -10 -10
-12 -16 -13 -29 -3 -13 10 -14 10 -4 -1 6 -7 9 -20 6 -28 -5 -12 -7 -12 -15
-1 -7 10 -8 9 -4 -4 3 -10 1 -18 -4 -18 -6 0 -10 -7 -10 -16 0 -8 -5 -12 -11
-9 -6 4 -5 -2 2 -14 15 -23 31 -9 22 18 -5 13 -3 14 7 4 9 -8 19 -9 31 -3 12
7 19 6 22 -5 4 -9 1 -12 -7 -9 -8 3 -17 0 -22 -7 -4 -8 -3 -10 4 -5 7 4 12 3
12 -3 0 -17 -22 -24 -31 -10 -5 8 -9 9 -9 4 0 -6 5 -16 12 -23 9 -9 8 -12 -5
-12 -21 0 -22 -19 -1 -27 9 -3 12 -9 6 -12 -5 -3 -14 -15 -21 -26 -10 -16 -11
-17 -7 -2 4 12 2 16 -7 12 -6 -4 -4 0 5 8 18 14 14 27 -7 27 -6 0 -11 -12 -11
-27 -1 -59 -4 -78 -12 -66 -5 8 -13 9 -22 3 -10 -7 -11 -10 -2 -10 19 0 14
-20 -5 -20 -13 0 -15 -2 -5 -8 14 -9 6 -42 -10 -42 -6 0 -5 6 2 15 7 8 9 15 6
15 -4 0 -14 -7 -22 -15 -9 -8 -11 -15 -6 -15 5 0 9 -7 9 -15 0 -11 -4 -12 -14
-3 -11 9 -12 7 -7 -7 6 -14 4 -16 -6 -10 -10 6 -12 4 -7 -8 3 -9 -1 -18 -10
-21 -11 -5 -14 -2 -9 10 5 14 4 15 -9 4 -9 -7 -14 -15 -11 -17 8 -8 56 -10 51
-3 -3 4 2 13 10 20 8 7 15 9 15 4 1 -5 9 6 19 25 14 27 19 30 24 17 5 -11 3
-15 -5 -10 -8 5 -9 2 -5 -10 5 -11 3 -15 -5 -10 -8 5 -9 2 -5 -10 4 -10 3 -15
-3 -11 -14 9 -12 -9 3 -24 10 -10 8 -11 -7 -5 -15 6 -17 4 -11 -6 6 -10 4 -12
-7 -7 -16 6 -19 -15 -5 -29 4 -4 7 -12 7 -18 0 -6 -5 -4 -10 4 -8 13 -10 13
-10 -1 0 -9 -10 -21 -22 -28 -23 -11 -23 -11 2 -6 14 3 19 2 12 -1 -6 -3 -10
-9 -7 -14 3 -4 -2 -7 -11 -6 -22 2 -50 -39 -33 -50 8 -5 10 -3 4 7 -5 8 -4 10
0 6 11 -10 15 -37 6 -37 -4 0 -12 5 -19 10 -6 6 -10 7 -7 4 3 -4 -1 -14 -8
-23 -10 -14 -10 -14 4 -4 13 11 15 7 16 -24 1 -20 -2 -31 -7 -24 -5 10 -9 9
-13 -3 -4 -9 -1 -15 5 -13 19 4 20 -21 1 -26 -17 -5 -17 -5 0 -6 10 0 15 -6
12 -11 -4 -6 -11 -7 -17 -4 -7 5 -8 -5 -3 -32 9 -48 13 -56 28 -47 8 5 8 2 0
-9 -7 -8 -10 -18 -6 -21 3 -4 1 -7 -6 -7 -8 0 -11 7 -6 18 5 14 4 15 -6 5 -11
-11 -11 -15 0 -25 10 -11 15 -9 28 7 14 18 15 18 9 2 -3 -10 -6 -21 -6 -23 0
-2 -7 -4 -15 -4 -8 0 -15 -5 -15 -10 0 -13 32 -9 42 5 9 13 4 -37 -5 -52 -4
-7 -14 -10 -22 -6 -33 12 -12 -13 23 -28 33 -14 34 -16 10 -15 -14 1 -24 5
-20 10 3 5 0 6 -7 2 -7 -5 -10 -10 -7 -14 3 -3 -1 -10 -9 -16 -12 -9 -11 -14
10 -34 l24 -24 27 27 c14 14 28 24 30 22 3 -2 -2 -10 -11 -17 -18 -15 -20 -34
-2 -24 9 6 9 5 0 -8 -7 -8 -9 -19 -5 -23 4 -5 1 -5 -6 -1 -7 4 -9 12 -6 18 5
7 2 8 -6 3 -10 -6 -8 -12 9 -27 13 -10 18 -18 12 -18 -7 0 -9 -5 -6 -11 4 -6
14 -8 22 -5 8 3 11 1 8 -4 -3 -6 -12 -10 -19 -10 -7 0 -12 -12 -11 -29 0 -17
4 -27 11 -24 7 2 15 -1 20 -8 4 -7 3 -10 -4 -5 -6 3 -13 2 -16 -3 -11 -17 12
-22 27 -6 13 13 16 13 21 -1 3 -8 2 -12 -4 -9 -6 3 -10 1 -10 -4 0 -6 7 -11
16 -11 15 0 15 -3 -1 -27 -10 -16 -12 -22 -4 -15 18 16 34 15 20 -2 -9 -11 -5
-16 18 -26 22 -9 30 -19 33 -46 2 -19 0 -34 -5 -34 -4 0 -5 -5 -2 -10 4 -6 1
-17 -5 -25 -9 -11 -9 -15 -1 -15 6 0 11 5 11 10 0 6 6 10 14 10 16 0 10 -40
-8 -52 -8 -5 -7 -8 2 -8 6 0 12 -5 12 -11 0 -5 -4 -8 -8 -5 -4 2 -8 -4 -8 -14
0 -12 5 -16 16 -12 11 4 10 0 -4 -16 -19 -22 -19 -22 0 -23 11 0 13 -3 7 -6
-7 -2 -13 -11 -13 -19 0 -9 -4 -12 -10 -9 -6 3 -7 -1 -4 -10 4 -10 10 -12 18
-6 8 7 11 2 10 -17 -1 -17 -6 -26 -15 -24 -8 2 -3 -8 10 -22 25 -26 17 -37 -9
-13 -9 7 -8 4 1 -8 9 -11 14 -26 11 -34 -3 -10 0 -11 9 -5 12 7 12 5 0 -9 -11
-14 -11 -17 0 -18 8 -1 18 -1 22 0 5 1 5 -3 2 -9 -4 -6 -13 -9 -19 -7 -7 3
-13 -1 -13 -8 0 -8 8 -12 20 -10 15 4 17 2 7 -10 -8 -9 -8 -15 -2 -15 12 0 10
-26 -3 -37 -4 -4 -5 -3 -1 4 3 6 2 14 -3 17 -5 4 -8 -2 -6 -11 2 -10 4 -22 4
-26 1 -5 7 -5 14 -1 8 5 8 2 -2 -9 -12 -15 -11 -17 5 -17 16 0 17 -2 4 -10
-12 -8 -10 -10 10 -11 17 -1 19 -3 8 -6 -16 -4 -17 -6 -2 -20 13 -13 13 -17 2
-24 -10 -6 -8 -9 7 -10 l20 0 -20 -9 c-11 -5 -15 -9 -8 -9 7 -1 10 -8 7 -16
-4 -9 0 -15 7 -15 11 0 11 -3 -1 -10 -13 -9 -13 -10 0 -10 9 0 11 -3 5 -8 -5
-4 -11 -13 -13 -20 -2 -10 2 -10 20 -1 19 9 21 9 11 -2 -18 -19 -16 -39 5 -40
11 0 12 -2 4 -6 -10 -4 -10 -8 -1 -19 9 -11 8 -14 -7 -14 -15 -1 -13 -4 8 -15
23 -13 26 -19 18 -44 -6 -21 -4 -33 9 -46 9 -10 10 -14 3 -10 -10 5 -9 -1 2
-24 9 -17 13 -31 8 -31 -5 0 -9 -7 -9 -15 0 -10 4 -12 12 -5 9 8 11 3 7 -16
-3 -17 -1 -25 6 -20 6 4 8 -2 5 -14 -3 -11 -9 -20 -14 -20 -5 0 0 -9 11 -20
10 -10 17 -28 15 -40 -3 -17 -1 -19 16 -10 24 13 25 2 2 -16 -10 -7 -13 -14
-7 -14 6 0 17 -13 24 -30 7 -16 18 -30 24 -30 7 0 7 -3 1 -8 -5 -4 -17 -16
-25 -27 -14 -20 -14 -20 7 -2 16 14 23 15 29 6 4 -8 3 -10 -4 -5 -7 4 -12 3
-12 -3 0 -5 -3 -16 -6 -25 -3 -9 -1 -16 6 -16 6 0 9 4 5 9 -3 5 -1 12 4 16 6
3 8 -5 5 -20 -2 -14 0 -25 5 -25 11 0 9 -19 -3 -39 -7 -10 -6 -12 4 -6 10 6
12 3 8 -13 -4 -14 -2 -19 6 -16 7 3 13 -2 13 -11 0 -8 -4 -15 -9 -15 -5 0 -6
-5 -3 -10 4 -6 12 -8 18 -4 7 3 4 -1 -6 -9 -14 -11 -15 -16 -5 -20 11 -4 11
-6 0 -6 -11 -1 -10 -4 1 -15 8 -9 13 -28 11 -45 -2 -17 1 -33 6 -36 7 -4 6
-14 -1 -28 -7 -12 -8 -19 -4 -15 4 4 14 0 20 -9 10 -13 10 -21 1 -35 -9 -15
-8 -21 4 -28 13 -9 13 -10 0 -11 -10 0 -8 -3 5 -9 11 -5 14 -9 8 -9 -7 -1 -13
-6 -13 -12 0 -5 4 -8 8 -5 4 2 8 -4 8 -15 0 -10 -4 -19 -9 -19 -4 0 -5 -6 -1
-12 12 -19 12 -48 0 -48 -6 0 -5 -4 3 -9 8 -5 11 -16 8 -25 -3 -8 -2 -18 4
-22 7 -4 6 -10 -1 -19 -8 -9 -8 -15 0 -20 5 -3 10 -12 10 -18 0 -8 -3 -7 -9 2
-7 10 -9 7 -8 -12 1 -14 5 -23 10 -20 4 2 7 -14 7 -37 0 -30 3 -39 13 -34 8 5
8 2 -2 -9 -11 -14 -11 -17 0 -17 12 0 12 -2 1 -9 -8 -4 -14 -12 -14 -16 0 -4
6 -12 14 -16 11 -7 10 -9 -1 -9 -11 0 -10 -4 5 -16 19 -15 19 -16 -1 -10 -18
5 -18 5 -3 -7 15 -12 15 -14 0 -24 -15 -10 -13 -11 8 -8 24 4 24 4 6 -10 -11
-8 -15 -15 -10 -15 6 0 16 -12 23 -27 10 -25 10 -26 -3 -9 -14 17 -15 16 -11
-10 2 -16 4 -31 5 -34 6 -14 4 -36 -2 -46 -5 -6 -2 -17 6 -23 8 -7 12 -20 9
-28 -5 -12 -3 -14 8 -8 11 7 12 6 2 -6 -18 -23 -19 -25 -5 -42 9 -11 10 -17 2
-22 -8 -5 -8 -11 1 -21 9 -11 8 -18 -2 -31 -12 -14 -12 -16 0 -8 11 6 13 4 8
-8 -3 -10 -2 -17 3 -17 6 0 10 -4 10 -10 0 -5 -8 -7 -17 -3 -16 5 -15 4 1 -9
10 -8 16 -20 12 -26 -4 -7 -2 -12 5 -12 9 0 9 -3 0 -14 -9 -11 -9 -16 -1 -21
7 -4 10 -16 7 -26 -3 -11 2 -23 11 -29 15 -8 15 -9 -2 -10 -14 0 -16 -3 -7
-13 8 -10 7 -17 -2 -26 -9 -10 -9 -11 5 -6 11 5 16 2 14 -9 -1 -8 -5 -19 -9
-22 -8 -9 12 -36 22 -29 4 2 8 -2 8 -9 0 -8 -7 -12 -16 -9 -12 4 -12 1 2 -10
12 -10 14 -17 8 -22 -6 -3 -11 -12 -11 -18 0 -7 4 -6 11 3 8 12 9 8 7 -15 -1
-17 2 -37 7 -45 15 -24 17 -52 3 -44 -10 6 -11 4 0 -7 15 -16 16 -33 1 -24 -6
4 -5 -2 2 -13 7 -12 17 -18 22 -15 5 3 4 -4 -2 -15 -14 -27 -14 -35 1 -26 8 5
9 2 5 -9 -3 -9 0 -23 8 -31 17 -17 20 -30 5 -21 -5 3 -10 1 -10 -4 0 -6 5 -11
10 -11 6 0 10 -9 10 -21 0 -13 4 -18 13 -13 8 5 8 2 -2 -9 -10 -13 -10 -17 -1
-17 9 0 9 -4 -1 -17 -12 -15 -12 -16 5 -10 15 6 17 4 13 -13 -3 -11 -1 -20 4
-20 5 0 9 -7 9 -16 0 -8 3 -13 8 -11 4 3 8 -6 8 -19 1 -14 -2 -21 -9 -17 -6 4
-7 1 -3 -6 5 -7 19 -16 32 -21 15 -6 22 -15 18 -25 -3 -8 -10 -13 -14 -10 -5
3 -12 1 -15 -5 -4 -6 -3 -10 2 -9 4 1 14 1 22 0 11 -1 11 -4 0 -18 -10 -11
-10 -14 -1 -9 7 4 12 2 12 -5 0 -7 3 -9 7 -6 13 14 32 -27 21 -47 -5 -10 -6
-16 -1 -13 4 3 13 -1 20 -8 10 -11 10 -15 0 -18 -9 -4 -9 -6 1 -6 7 -1 10 -6
7 -11 -4 -6 -3 -10 2 -9 20 3 25 -2 14 -15 -10 -12 -8 -14 11 -9 18 4 20 3 8
-6 -12 -8 -12 -11 -1 -11 7 0 11 -6 8 -14 -4 -10 -1 -13 9 -9 8 3 14 2 13 -3
-1 -5 0 -12 1 -16 1 -5 3 -11 4 -15 2 -15 33 -53 38 -48 3 3 11 -2 19 -12 12
-15 12 -16 -1 -9 -9 4 -8 1 3 -7 9 -8 17 -20 17 -27 0 -7 7 -10 16 -6 8 3 12
2 9 -3 -3 -6 3 -14 12 -20 10 -6 13 -11 7 -11 -5 0 -15 5 -21 11 -8 8 -13 7
-18 -2 -5 -7 -4 -10 2 -6 6 4 16 0 23 -8 7 -8 17 -12 24 -8 6 4 4 -2 -4 -12
-9 -11 -10 -16 -2 -11 7 4 15 1 18 -9 4 -9 13 -14 22 -10 13 5 13 3 1 -12 -9
-11 -10 -14 -1 -9 7 4 12 1 12 -8 0 -9 5 -16 11 -16 5 0 7 5 4 10 -10 16 1 11
16 -7 10 -11 10 -14 2 -9 -17 10 -16 0 3 -29 9 -14 21 -22 30 -18 8 3 14 2 13
-3 -3 -18 1 -37 7 -31 10 10 65 -54 57 -67 -4 -6 1 -5 10 3 9 7 17 9 17 4 0
-6 9 -20 20 -33 11 -12 17 -26 15 -30 -3 -5 3 -6 14 -3 13 3 20 -2 25 -21 8
-32 26 -35 20 -3 -3 16 -1 15 7 -6 6 -16 15 -24 22 -20 7 4 5 -2 -3 -12 -13
-17 -13 -18 1 -13 8 3 26 -3 40 -14 13 -11 19 -17 13 -14 -6 3 -11 -1 -11 -8
0 -8 7 -12 15 -8 10 3 13 1 8 -6 -5 -8 -1 -10 11 -5 10 3 15 3 11 -1 -11 -12
15 -34 32 -28 13 5 13 3 1 -12 -12 -15 -12 -17 0 -14 8 2 13 -3 11 -9 -3 -16
10 -17 26 -1 9 9 11 5 8 -21 -2 -23 0 -29 7 -22 17 17 31 13 17 -4 -11 -13
-10 -14 4 -9 15 6 22 -10 17 -39 -1 -4 7 -4 17 2 14 7 18 6 18 -9 0 -10 -4
-16 -8 -14 -4 3 -8 0 -8 -5 0 -6 7 -11 15 -11 9 0 12 -6 9 -15 -4 -8 -1 -15 6
-15 9 0 9 -4 -1 -17 -10 -11 -10 -14 -1 -9 8 5 12 0 12 -14 0 -12 5 -18 10
-15 14 9 13 -8 -2 -23 -9 -9 -8 -12 7 -12 17 0 18 -2 5 -10 -11 -7 -11 -10 -2
-10 10 0 10 -5 2 -20 -9 -16 -8 -20 5 -20 13 0 14 -4 4 -21 -9 -17 -8 -20 2
-14 8 6 11 4 6 -7 -3 -9 0 -21 6 -28 9 -10 9 -11 -3 -5 -13 8 -13 7 -1 -8 12
-15 11 -17 -5 -17 -18 -1 -18 -1 -1 -11 16 -9 16 -12 1 -26 -12 -13 -13 -17
-2 -24 10 -7 9 -9 -4 -9 -12 0 -15 -5 -11 -17 4 -11 3 -14 -6 -9 -15 10 -41
-11 -35 -28 3 -8 -4 -16 -16 -19 -11 -3 -19 -11 -18 -18 2 -6 -17 -28 -42 -47
-25 -20 -36 -32 -25 -29 19 7 19 7 1 -8 -10 -8 -23 -12 -29 -8 -6 4 -7 1 -3
-6 5 -7 0 -19 -10 -27 -11 -9 -12 -12 -4 -8 12 7 13 5 3 -8 -7 -8 -9 -19 -5
-24 4 -4 -1 -2 -10 5 -13 10 -18 10 -18 2 0 -7 -7 -19 -16 -28 -8 -9 -13 -22
-10 -30 3 -8 2 -11 -3 -8 -5 3 -12 1 -16 -5 -4 -6 -10 -8 -14 -5 -5 2 -7 -7
-5 -21 2 -19 -1 -24 -12 -20 -9 3 -16 -3 -20 -19 -4 -15 -11 -22 -20 -18 -8 3
-14 2 -13 -3 4 -23 -2 -33 -18 -27 -9 4 -14 2 -10 -3 7 -12 -2 -27 -28 -43
-18 -11 -18 -12 -1 -7 16 6 17 4 6 -9 -7 -8 -16 -12 -21 -9 -5 3 -10 0 -10 -5
-3 -21 -5 -26 -18 -46 l-13 -20 6 20 c6 19 5 19 -7 3 -8 -10 -16 -15 -19 -13
-3 3 -4 -6 -3 -20 2 -14 0 -23 -4 -20 -5 2 -14 -7 -21 -20 -7 -13 -18 -22 -23
-18 -6 3 -7 1 -3 -5 4 -7 3 -12 -3 -12 -6 0 -7 -8 -4 -17 5 -12 2 -15 -10 -10
-17 6 -52 -37 -42 -53 3 -6 -1 -7 -10 -4 -10 4 -15 2 -13 -7 2 -8 -3 -13 -10
-11 -6 1 -11 -1 -10 -5 1 -5 -4 -20 -10 -35 -12 -29 -28 -36 -34 -16 -3 7 -7
2 -10 -10 -4 -14 -2 -20 4 -15 7 3 8 1 4 -5 -4 -7 -15 -12 -24 -12 -15 0 -15
-2 -2 -10 8 -5 10 -10 4 -10 -5 0 -19 -7 -30 -15 -19 -15 -19 -15 1 -9 14 4
12 0 -8 -13 -15 -11 -24 -23 -20 -28 5 -4 0 -5 -9 -2 -13 5 -16 1 -12 -17 2
-15 -3 -29 -14 -37 -15 -13 -16 -12 -4 3 8 9 9 19 4 22 -10 6 -27 -40 -23 -63
2 -9 -3 -12 -13 -8 -11 4 -13 1 -9 -10 5 -13 1 -15 -20 -11 -15 3 -24 2 -22
-3 7 -11 -16 -59 -25 -54 -10 6 -17 -14 -15 -42 1 -15 -5 -25 -17 -29 -15 -4
-17 -9 -7 -20 9 -11 8 -14 -7 -15 -11 0 -13 -3 -7 -6 10 -3 9 -8 -3 -20 -8 -9
-13 -21 -10 -28 3 -8 -2 -16 -10 -19 -9 -3 -12 -11 -8 -18 4 -7 3 -10 -1 -5
-5 4 -19 0 -31 -8 -13 -8 -29 -12 -37 -9 -8 3 -18 0 -23 -7 -5 -8 -3 -10 7 -4
8 5 10 4 6 0 -10 -12 -39 -16 -32 -5 3 5 0 12 -6 16 -8 4 -9 3 -5 -4 4 -7 2
-12 -4 -12 -6 0 -8 -5 -4 -12 5 -9 3 -9 -9 1 -14 11 -18 11 -23 -3 -3 -9 -10
-16 -16 -16 -5 0 -6 6 -2 13 6 8 3 8 -9 -1 -9 -8 -22 -10 -28 -6 -8 5 -9 3 -4
-6 6 -9 4 -12 -7 -8 -8 4 -19 -2 -26 -12 -7 -11 -19 -16 -30 -13 -11 2 -23 0
-26 -6 -5 -7 -1 -9 11 -5 16 6 15 5 -2 -9 -10 -8 -25 -13 -32 -10 -7 3 -13 0
-13 -7 0 -7 -7 -10 -15 -6 -10 3 -15 -1 -15 -12 0 -15 -2 -15 -10 -2 -9 14
-15 7 -11 -14 1 -5 -5 -3 -14 4 -13 11 -15 10 -9 -4 4 -9 3 -16 -2 -15 -25 4
-54 -2 -49 -11 3 -5 1 -10 -4 -10 -6 0 -11 5 -11 11 0 5 -5 7 -10 4 -6 -4 -7
-11 -4 -17 5 -7 1 -9 -9 -5 -11 4 -17 1 -17 -8 0 -7 -5 -17 -12 -21 -7 -4 -8
-3 -4 4 10 16 -7 15 -23 0 -11 -11 -13 -10 -8 5 6 16 5 16 -18 1 -14 -9 -25
-21 -25 -28 0 -8 -2 -8 -8 0 -10 15 -42 13 -42 -2 0 -8 -6 -11 -15 -8 -18 7
-77 -15 -70 -25 2 -4 -2 -8 -11 -8 -10 0 -13 7 -9 21 5 18 4 17 -8 -3 -10 -16
-16 -20 -22 -12 -10 17 -48 -18 -40 -38 4 -11 0 -10 -15 4 -20 18 -21 18 -14
0 5 -13 4 -16 -4 -11 -7 4 -12 2 -12 -4 0 -7 -7 -9 -16 -6 -8 3 -13 2 -10 -2
2 -4 1 -14 -5 -22 -7 -13 -9 -13 -9 0 0 9 -3 11 -8 5 -12 -17 -56 -51 -48 -37
9 15 -20 17 -29 2 -4 -6 -11 -7 -17 -4 -6 4 -8 2 -5 -3 9 -15 -27 -22 -49 -10
-10 5 -16 6 -12 2 4 -4 0 -14 -10 -21 -13 -9 -20 -10 -31 -1 -12 10 -13 9 -6
-2 6 -11 4 -13 -8 -8 -10 3 -17 2 -17 -3 0 -5 -10 -12 -22 -16 -36 -12 -49
-13 -42 -3 3 5 1 9 -4 9 -5 0 -12 -9 -15 -21 -3 -12 -10 -18 -16 -14 -6 3 -11
1 -11 -5 0 -6 -5 -8 -10 -5 -6 4 -17 1 -25 -5 -8 -6 -19 -9 -24 -5 -6 3 -8 0
-5 -8 3 -8 0 -18 -7 -23 -8 -4 -10 -3 -5 4 11 18 -5 14 -19 -5 -12 -16 -50
-29 -40 -13 8 13 -24 5 -38 -10 -8 -9 -8 -11 0 -6 6 3 14 2 18 -4 6 -9 -16
-15 -39 -11 -5 1 -6 -4 -3 -12 3 -7 -1 -14 -9 -14 -7 0 -11 4 -8 9 3 4 0 8 -5
8 -6 0 -11 -5 -11 -11 0 -5 -5 -7 -12 -3 -8 5 -9 1 -4 -12 6 -15 5 -16 -5 -7
-10 10 -15 9 -25 -5 -7 -9 -17 -18 -23 -18 -6 -1 -18 -2 -27 -3 -9 -1 -12 -6
-8 -13 5 -8 2 -8 -10 1 -14 12 -17 12 -14 1 2 -8 -7 -14 -23 -14 -14 -1 -33
-7 -42 -14 -9 -8 -22 -11 -29 -7 -7 4 -5 0 5 -8 22 -18 22 -28 0 -20 -12 5
-14 3 -8 -8 8 -12 6 -12 -8 0 -15 12 -17 12 -11 -3 4 -10 1 -16 -8 -16 -7 0
-19 -9 -26 -20 -7 -12 -17 -18 -22 -15 -6 3 -7 -1 -4 -10 4 -9 3 -15 -2 -14
-24 4 -33 -2 -27 -18 5 -15 3 -14 -10 2 -16 19 -16 19 -17 1 0 -11 -3 -16 -7
-13 -3 4 -12 -1 -20 -11 -12 -16 -13 -16 -6 2 6 18 5 18 -15 0 -23 -19 -29
-30 -12 -19 6 3 10 -1 10 -10 0 -12 -4 -14 -19 -6 -15 9 -20 7 -24 -11 -4 -14
-11 -19 -22 -14 -9 3 -13 2 -10 -3 3 -5 0 -13 -6 -16 -5 -4 -8 -14 -5 -22 4
-8 1 -11 -5 -7 -6 3 -17 -4 -26 -16 -9 -13 -21 -19 -30 -15 -12 4 -13 2 -5 -8
9 -10 8 -14 -3 -14 -8 0 -15 7 -16 16 0 12 -3 10 -8 -4 -5 -11 -7 -23 -4 -27
2 -5 -3 -8 -11 -8 -9 0 -16 -4 -16 -9 0 -5 -9 -11 -21 -14 -12 -3 -18 -10 -14
-16 3 -6 1 -11 -5 -11 -6 0 -8 -5 -4 -12 5 -8 0 -7 -11 2 -11 9 -16 10 -11 3
4 -8 1 -13 -8 -13 -9 0 -16 -5 -16 -10 0 -6 -5 -9 -11 -8 -6 2 -13 -5 -14 -14
-3 -19 -24 -43 -40 -47 -5 -2 -8 -8 -7 -14 2 -7 0 -9 -4 -4 -9 9 -44 -21 -44
-38 0 -16 -49 -57 -60 -50 -6 3 -7 -1 -4 -9 3 -8 -4 -24 -15 -35 -12 -12 -21
-27 -21 -33 0 -9 -4 -8 -10 2 -8 13 -10 12 -11 -5 -1 -11 -1 -23 -1 -26 1 -3
-6 -6 -13 -6 -11 0 -12 4 -4 14 6 7 9 13 6 13 -3 0 -16 -15 -28 -32 -20 -29
-21 -31 -4 -18 20 14 20 14 1 -8 -11 -12 -25 -22 -32 -22 -9 0 -11 -6 -7 -17
6 -16 5 -17 -12 -3 -17 14 -18 14 -5 -10 12 -23 12 -24 -4 -11 -9 8 -16 10
-15 5 4 -17 -21 -65 -31 -59 -5 3 -10 1 -10 -4 0 -22 -2 -26 -16 -34 -8 -5
-11 -13 -8 -19 5 -7 2 -9 -8 -6 -11 5 -14 0 -10 -19 3 -18 1 -24 -7 -19 -6 4
-8 12 -5 18 5 7 2 8 -5 4 -7 -5 -10 -14 -8 -20 3 -7 -4 -18 -14 -25 -11 -6
-18 -15 -15 -20 3 -4 -4 -15 -15 -24 -10 -9 -19 -26 -19 -37 0 -22 -15 -27
-23 -7 -3 6 -4 -3 -2 -21 2 -18 1 -30 -3 -28 -4 2 -13 -2 -20 -10 -10 -11 -10
-14 0 -14 9 0 9 -3 -2 -9 -8 -6 -18 -7 -24 -4 -5 3 -6 1 -2 -6 4 -6 13 -8 19
-4 8 5 8 2 0 -9 -7 -8 -9 -19 -5 -24 4 -4 0 -3 -10 4 -12 10 -18 10 -24 1 -5
-8 -3 -9 6 -4 8 5 11 3 8 -6 -3 -8 -10 -13 -15 -12 -6 1 -9 -9 -7 -23 2 -21
-1 -24 -19 -19 -16 5 -18 4 -8 -3 10 -7 10 -11 1 -17 -6 -4 -9 -14 -6 -22 4
-8 1 -11 -5 -8 -6 4 -9 0 -7 -8 2 -9 -6 -23 -17 -31 -15 -12 -16 -16 -5 -16 9
0 6 -6 -10 -16 -18 -11 -20 -14 -5 -10 19 6 19 5 3 -7 -10 -8 -15 -17 -11 -20
3 -4 1 -7 -6 -7 -7 0 -9 -5 -5 -12 5 -8 2 -9 -11 -4 -15 5 -16 4 -5 -9 10 -12
10 -15 0 -15 -7 0 -10 -6 -7 -14 4 -11 0 -13 -15 -11 -17 4 -19 2 -10 -7 17
-17 15 -31 -3 -24 -13 5 -14 2 -4 -15 9 -17 8 -20 -2 -14 -9 6 -11 3 -6 -9 5
-13 1 -19 -13 -23 -15 -4 -18 -9 -10 -18 8 -10 8 -15 0 -20 -6 -4 -9 -14 -5
-22 5 -14 3 -14 -11 -2 -16 13 -17 11 -12 -14 3 -15 1 -30 -5 -34 -6 -4 -7 -1
-2 7 5 9 4 11 -4 6 -6 -4 -10 -15 -9 -24 2 -10 -3 -16 -11 -14 -11 2 -12 0 -3
-11 14 -17 4 -31 -12 -17 -8 6 -12 3 -12 -10 0 -10 4 -16 8 -14 4 3 8 1 8 -4
0 -6 -7 -13 -15 -16 -9 -3 -15 -14 -13 -23 2 -11 -2 -17 -11 -15 -12 3 -12 1
0 -14 8 -10 9 -15 3 -11 -7 4 -14 0 -17 -8 -4 -10 -1 -12 11 -9 9 3 5 -2 -10
-10 -22 -13 -26 -22 -23 -53 1 -21 1 -32 -2 -25 -6 17 -20 15 -27 -4 -3 -8 -2
-12 4 -9 17 10 11 -7 -7 -22 -10 -8 -12 -12 -6 -8 9 4 11 1 7 -9 -3 -9 -11
-13 -18 -9 -6 4 -6 0 2 -9 15 -19 0 -34 -20 -22 -10 6 -10 5 -1 -7 7 -9 8 -20
3 -29 -5 -8 -6 -18 -3 -24 3 -5 1 -6 -5 -2 -8 4 -12 0 -12 -11 0 -11 -6 -25
-12 -32 -11 -11 -10 -13 2 -7 12 6 12 5 -1 -6 -9 -7 -14 -19 -11 -27 3 -10 0
-11 -9 -5 -12 6 -12 5 -1 -8 9 -11 10 -18 2 -23 -6 -3 -7 -12 -3 -18 4 -7 0
-7 -10 1 -14 12 -16 11 -12 -7 2 -12 -1 -21 -6 -21 -6 0 -8 -4 -5 -9 8 -12
-19 -73 -28 -64 -4 4 -4 -1 0 -11 6 -15 4 -17 -7 -11 -12 8 -12 6 0 -8 10 -13
10 -17 1 -17 -10 0 -10 -3 0 -15 10 -12 8 -13 -10 -10 -18 3 -20 2 -10 -10 9
-11 10 -19 1 -28 -6 -8 -7 -18 -3 -22 4 -5 0 -6 -9 -3 -13 5 -15 1 -11 -19 4
-20 2 -24 -9 -18 -12 8 -12 6 0 -8 12 -15 9 -21 -11 -18 -4 0 -4 -7 -1 -16 5
-12 3 -14 -8 -8 -12 8 -12 6 -1 -8 16 -19 6 -41 -15 -32 -13 4 -14 3 -3 -10
10 -12 10 -15 -1 -16 -8 0 -5 -4 6 -9 17 -7 17 -9 3 -9 -12 -1 -15 -6 -11 -18
4 -10 2 -14 -5 -9 -6 3 -13 2 -17 -4 -3 -5 0 -10 7 -10 8 0 6 -5 -5 -11 -14
-8 -15 -14 -6 -31 6 -11 7 -18 2 -15 -5 3 -15 2 -23 -4 -12 -7 -11 -9 5 -9 17
0 17 -2 5 -10 -8 -5 -10 -10 -5 -10 6 0 3 -5 -7 -10 -10 -6 -15 -20 -13 -35 1
-17 -3 -25 -13 -25 -13 0 -12 -3 4 -16 10 -8 14 -13 8 -10 -7 3 -18 -2 -25
-11 -10 -12 -10 -14 -1 -9 8 4 12 1 12 -9 0 -12 -5 -15 -16 -11 -14 5 -15 4
-4 -9 9 -10 9 -15 1 -15 -7 0 -10 -10 -7 -24 3 -18 1 -23 -10 -19 -8 3 -14 0
-14 -6 0 -6 5 -11 10 -11 6 0 10 -5 10 -12 0 -6 -3 -8 -7 -5 -3 4 -12 -1 -19
-11 -9 -13 -10 -20 -1 -31 9 -12 9 -13 0 -7 -8 4 -13 1 -14 -8 -1 -9 -3 -20
-4 -26 -1 -5 -3 -15 -4 -21 0 -5 -7 -7 -13 -3 -9 5 -9 2 1 -9 8 -11 9 -17 3
-17 -6 0 -9 -6 -6 -14 3 -8 0 -17 -7 -22 -8 -5 -10 -3 -4 6 5 9 4 11 -4 6 -7
-5 -9 -12 -3 -19 15 -21 -3 -71 -22 -60 -6 4 -6 0 2 -9 10 -13 10 -18 1 -24
-8 -5 -9 -3 -4 6 5 9 4 11 -4 6 -9 -6 -9 -11 1 -24 11 -13 11 -14 -1 -7 -11 6
-13 3 -9 -13 4 -14 2 -20 -5 -15 -6 4 -8 -2 -4 -16 3 -13 3 -20 0 -17 -8 8
-34 -44 -27 -55 3 -5 1 -9 -5 -9 -6 0 -8 -6 -5 -14 3 -8 0 -17 -6 -21 -9 -6
-9 -10 1 -17 10 -7 7 -8 -9 -5 -23 5 -23 5 -6 -14 12 -14 14 -19 5 -17 -7 2
-16 -3 -19 -11 -3 -9 0 -11 9 -7 8 4 6 1 -3 -7 -10 -8 -15 -17 -11 -20 9 -10
-18 -38 -30 -30 -6 3 -7 1 -3 -5 4 -6 14 -8 24 -5 13 4 13 2 -3 -10 -11 -9
-16 -17 -11 -17 6 0 1 -7 -10 -16 -10 -8 -13 -13 -6 -9 6 3 12 1 12 -4 0 -6
-5 -11 -11 -11 -5 0 -7 -5 -3 -12 5 -8 2 -9 -11 -4 -15 5 -16 4 -6 -8 9 -11 8
-17 -4 -29 -11 -12 -12 -17 -2 -20 9 -4 9 -6 0 -6 -7 -1 -13 -9 -13 -18 0 -9
-8 -25 -17 -36 -10 -12 -12 -17 -4 -12 9 5 12 3 9 -6 -3 -8 -11 -13 -18 -11
-10 2 -10 -1 1 -14 13 -16 12 -17 -6 -10 -16 6 -17 5 -8 -5 10 -10 9 -15 -5
-26 -12 -10 -12 -12 -2 -8 8 4 6 -1 -4 -9 -11 -9 -16 -16 -12 -16 5 0 3 -7 -4
-15 -11 -13 -10 -15 6 -10 16 5 15 4 -2 -7 -12 -7 -19 -19 -17 -25 3 -7 0 -13
-6 -13 -5 0 -8 -9 -6 -20 3 -13 0 -18 -7 -14 -8 5 -9 1 -5 -10 4 -11 3 -15 -4
-11 -6 4 -9 -1 -7 -11 2 -11 -2 -18 -8 -17 -6 1 -11 -8 -10 -20 0 -12 -4 -21
-11 -20 -8 2 -10 -4 -6 -14 4 -10 2 -14 -5 -9 -8 4 -8 -3 -2 -25 7 -25 7 -29
-4 -20 -13 11 -15 4 -17 -41 0 -10 -7 -18 -15 -18 -8 0 -13 -4 -9 -9 3 -5 0
-13 -6 -16 -5 -4 -8 -13 -5 -21 3 -8 -1 -14 -10 -14 -8 0 -12 -5 -9 -10 9 -14
-14 -42 -28 -33 -6 3 -7 1 -3 -6 4 -6 12 -9 17 -5 9 5 -9 -34 -21 -46 -16 -16
-30 -52 -24 -62 5 -8 1 -9 -12 -4 -10 4 -15 4 -11 0 4 -4 1 -14 -6 -23 -11
-14 -10 -14 6 -2 25 19 21 6 -5 -20 -13 -12 -17 -19 -10 -15 6 4 12 5 12 2 0
-3 -12 -13 -27 -21 -16 -9 -21 -14 -13 -12 10 3 16 -2 16 -13 0 -10 -4 -16 -8
-14 -4 3 -8 -2 -8 -11 0 -9 -5 -13 -11 -9 -8 4 -9 0 -4 -15 5 -17 3 -20 -12
-14 -16 6 -17 5 -3 -12 14 -17 13 -18 -3 -12 -15 6 -16 4 -7 -13 8 -16 8 -20
-2 -18 -7 2 -14 -8 -16 -22 -2 -14 -12 -34 -22 -45 -10 -11 -16 -28 -15 -38 2
-10 -1 -14 -8 -10 -7 4 -8 0 -3 -12 5 -15 4 -16 -8 -6 -13 11 -14 9 -10 -14 3
-20 1 -25 -8 -19 -8 5 -7 1 2 -11 14 -17 13 -18 -5 -11 -11 4 -16 4 -12 0 4
-4 1 -14 -6 -22 -10 -13 -9 -15 3 -8 9 5 8 2 -2 -7 -14 -11 -15 -16 -5 -27 9
-10 9 -11 0 -6 -7 4 -13 2 -13 -4 0 -6 -4 -9 -8 -6 -5 3 -9 -1 -9 -9 0 -8 5
-12 11 -9 6 3 3 -1 -6 -9 -10 -8 -15 -17 -11 -20 3 -4 2 -7 -4 -7 -6 0 -9 -11
-8 -25 2 -14 0 -23 -3 -21 -4 2 -13 -2 -20 -10 -10 -11 -10 -14 0 -14 8 -1 5
-7 -6 -15 -11 -8 -16 -15 -11 -15 5 0 4 -5 -3 -12 -16 -16 -15 -31 1 -22 7 4
9 3 4 -2 -5 -5 -13 -10 -18 -10 -22 -3 -23 -5 -9 -14 11 -7 11 -10 2 -10 -8 0
-10 -5 -6 -12 5 -8 2 -9 -9 -5 -22 8 -21 3 1 -19 15 -16 15 -17 0 -12 -22 9
-31 -2 -16 -19 9 -11 8 -13 -3 -11 -9 2 -14 -6 -14 -24 1 -23 -2 -25 -20 -16
-18 10 -19 10 -6 -5 12 -15 11 -17 -5 -17 -14 0 -16 -2 -6 -9 10 -6 8 -10 -8
-14 -15 -4 -21 -11 -17 -21 4 -9 3 -15 -1 -15 -18 3 -32 -2 -32 -12 0 -5 6 -7
13 -3 7 4 9 3 4 -2 -8 -9 -12 -10 -38 -13 -8 -1 -8 -6 1 -16 11 -13 10 -14 -5
-9 -13 5 -16 4 -11 -4 4 -7 2 -12 -5 -12 -7 0 -9 -3 -6 -7 4 -3 -6 -17 -21
-31 -15 -14 -20 -23 -11 -20 9 4 16 1 16 -8 0 -7 -3 -11 -7 -9 -9 6 -30 -41
-22 -49 10 -11 11 -36 1 -36 -6 0 -5 -9 2 -22 10 -18 9 -20 -4 -15 -11 4 -14
2 -10 -8 3 -8 10 -12 17 -8 6 4 4 -1 -4 -11 -17 -21 -20 -65 -7 -83 6 -9 4
-15 -7 -19 -14 -5 -14 -9 -4 -22 10 -12 10 -14 1 -8 -7 4 -13 4 -14 -1 0 -4
-3 -19 -5 -33 -2 -14 -5 -37 -7 -53 -1 -15 -16 -42 -32 -59 -17 -18 -24 -28
-16 -24 8 6 7 0 -4 -18 -9 -14 -21 -24 -25 -21 -5 3 -12 0 -16 -6 -5 -8 -3 -9
6 -4 8 5 11 3 8 -6 -3 -8 -11 -13 -18 -11 -11 2 -10 -1 0 -15 8 -10 11 -15 6
-11 -14 12 -44 -23 -38 -45 3 -13 1 -18 -6 -13 -6 3 -13 2 -17 -4 -3 -5 -1
-10 5 -10 7 0 5 -7 -4 -16 -9 -8 -13 -21 -9 -27 5 -9 3 -9 -8 0 -12 10 -15 8
-16 -15 -3 -56 -8 -80 -17 -74 -5 3 -7 -2 -3 -11 3 -9 2 -19 -4 -23 -6 -4 -5
-12 3 -22 10 -12 10 -14 1 -8 -8 4 -13 1 -13 -8 0 -9 5 -16 11 -16 6 0 3 -7
-5 -16 -12 -12 -13 -20 -6 -35 8 -14 7 -19 -2 -19 -9 0 -9 -3 2 -10 13 -9 13
-10 0 -10 -13 0 -13 -1 0 -10 13 -9 13 -10 0 -10 -12 -1 -11 -3 3 -11 14 -8
16 -14 6 -25 -7 -8 -7 -14 -1 -14 5 0 12 -11 14 -25 5 -22 3 -23 -10 -13 -13
12 -14 10 -2 -9 8 -12 19 -19 25 -15 5 3 4 -2 -4 -11 -9 -12 -10 -17 -2 -17 8
0 9 -5 1 -19 -7 -14 -7 -22 1 -27 6 -3 9 -15 6 -25 -3 -11 -2 -19 1 -19 4 0 7
-14 7 -30 0 -22 -4 -29 -14 -25 -10 4 -11 2 -3 -8 11 -13 9 -68 -4 -89 -5 -8
-1 -9 12 -5 18 7 18 6 2 -6 -12 -10 -14 -17 -7 -24 8 -8 5 -16 -10 -29 -16
-14 -18 -21 -8 -32 14 -17 13 -22 -5 -33 -10 -7 -10 -9 0 -9 7 0 10 -5 7 -10
-4 -6 -12 -7 -18 -3 -7 4 -6 0 2 -10 7 -9 9 -17 4 -17 -5 0 -10 -7 -10 -15 0
-12 3 -12 16 -3 14 11 14 10 0 -7 -9 -11 -15 -28 -14 -37 2 -10 -1 -20 -6 -24
-5 -3 -9 -10 -9 -15 0 -6 4 -7 10 -4 6 3 7 -1 4 -9 -3 -9 -11 -16 -16 -16 -6
0 -5 -7 3 -16 10 -13 10 -17 0 -24 -11 -6 -11 -9 0 -13 10 -4 10 -6 2 -6 -9
-1 -10 -8 -2 -27 9 -25 8 -26 -7 -13 -16 13 -16 12 -5 -8 7 -14 8 -23 2 -23
-7 0 -7 -9 -3 -22 8 -21 8 -41 2 -53 -6 -13 -6 -31 2 -47 4 -9 4 -19 0 -22
-10 -6 -9 -42 1 -52 3 -4 1 -16 -5 -27 -9 -17 -8 -19 8 -13 17 7 17 6 -1 -14
-12 -13 -14 -20 -5 -20 7 0 10 -7 7 -15 -4 -8 -2 -17 3 -20 4 -3 6 -19 3 -36
-3 -24 -2 -29 9 -23 10 6 10 4 -1 -9 -7 -9 -9 -17 -3 -17 5 0 8 -9 5 -20 -3
-11 1 -28 8 -37 10 -12 10 -14 2 -9 -7 4 -13 3 -13 -2 0 -6 7 -13 16 -16 8 -3
12 -11 9 -17 -4 -5 -8 -21 -10 -35 -2 -19 1 -22 11 -14 10 9 11 6 7 -9 -3 -12
-1 -21 4 -21 6 0 9 -12 7 -26 -3 -34 5 -56 20 -47 6 4 5 -1 -3 -10 -9 -12 -10
-17 -2 -17 7 0 9 -4 6 -10 -3 -5 -1 -10 5 -10 6 0 8 -4 5 -10 -3 -5 -1 -10 4
-10 6 0 11 -5 11 -11 0 -5 -6 -7 -12 -3 -9 6 -9 3 0 -9 8 -9 10 -22 6 -28 -4
-7 -3 -9 4 -5 6 3 14 1 18 -5 3 -6 1 -15 -6 -19 -8 -5 -7 -9 4 -13 9 -4 16
-16 16 -28 0 -16 4 -20 18 -15 14 5 14 4 -2 -9 -19 -14 -11 -21 17 -16 4 1 3
-7 -2 -18 -8 -14 -7 -22 4 -31 8 -7 15 -21 15 -32 0 -13 4 -17 13 -12 8 5 8 2
-2 -9 -10 -13 -10 -17 -1 -17 7 0 10 -7 6 -16 -3 -9 -2 -12 5 -9 6 4 10 1 9
-6 -3 -19 11 -59 19 -59 6 0 11 -20 14 -62 1 -9 5 -14 9 -12 7 5 13 -26 9 -48
0 -5 7 -8 16 -8 9 0 13 -3 10 -7 -4 -3 2 -12 13 -20 11 -8 20 -22 20 -31 0
-10 9 -23 20 -30 11 -7 20 -22 20 -35 0 -18 2 -19 10 -7 8 12 10 11 10 -7 0
-13 3 -22 8 -22 27 4 34 -1 22 -17 -11 -12 -11 -15 1 -12 8 2 13 -3 11 -10 -1
-8 2 -11 7 -8 5 4 12 2 16 -4 4 -6 11 -8 16 -5 5 4 12 -1 15 -9 3 -9 13 -16
21 -16 9 0 11 -5 7 -12 -6 -10 -4 -10 8 0 18 14 34 0 22 -19 -5 -8 -1 -8 13 0
25 13 37 3 20 -17 -10 -13 -9 -14 3 -7 23 14 35 16 108 15 15 0 21 -4 17 -13
-4 -6 -1 -5 7 3 15 17 32 20 45 6 5 -5 2 -6 -6 -1 -10 5 -12 4 -7 -4 4 -6 12
-9 17 -5 5 3 7 9 4 14 -3 5 15 6 41 4 35 -4 44 -3 39 7 -6 8 -4 10 6 4 7 -5
28 -10 47 -12 25 -3 32 -1 26 9 -6 10 -4 10 9 0 9 -8 21 -11 26 -8 5 4 13 1
17 -5 5 -8 9 -7 14 2 7 10 12 10 23 1 7 -7 17 -9 20 -5 9 9 77 10 77 1 0 -4
12 -3 26 2 14 6 23 6 20 1 -3 -5 1 -11 9 -14 10 -4 12 -1 8 11 -6 15 -3 14 15
-2 12 -11 22 -16 22 -11 0 4 7 2 15 -5 9 -7 18 -10 22 -6 3 3 2 6 -4 6 -6 0
-13 6 -16 13 -3 8 1 14 9 14 7 0 11 -4 9 -8 -3 -4 2 -10 11 -13 22 -9 26 -8
18 5 -3 6 4 4 17 -4 16 -10 41 -14 72 -12 44 3 48 2 44 -16 -3 -10 -1 -17 4
-13 5 3 9 13 9 22 1 13 5 10 16 -8 8 -14 13 -18 12 -10 -2 8 2 15 7 15 5 0 9
-6 7 -12 -2 -7 3 -10 10 -8 8 3 22 -1 33 -9 14 -10 23 -11 36 -3 14 9 22 6 38
-14 l20 -24 -5 25 c-4 24 -4 24 7 3 15 -29 35 -35 54 -17 13 14 15 13 13 -7
-2 -12 3 -24 12 -26 13 -4 13 -3 0 6 -9 6 -10 11 -3 11 6 0 18 -7 27 -15 8 -8
19 -15 25 -15 6 0 11 -4 11 -10 0 -5 5 -10 11 -10 5 0 7 4 4 10 -3 6 -1 10 4
10 10 0 15 -14 12 -33 -1 -5 3 -6 9 -2 6 3 8 12 4 18 -3 7 2 3 10 -7 12 -15
16 -16 16 -5 0 12 2 12 9 0 5 -8 14 -10 21 -6 9 6 11 4 5 -5 -6 -10 -4 -12 8
-7 11 4 17 1 17 -9 0 -8 5 -12 10 -9 6 4 7 12 3 18 -4 7 0 6 10 -2 19 -15 23
-26 5 -15 -7 4 -8 3 -4 -4 5 -9 15 -7 34 5 15 9 24 13 20 8 -4 -4 0 -14 10
-22 9 -8 11 -11 3 -7 -9 4 -12 3 -7 -4 10 -17 36 -3 29 16 -5 16 -5 16 8 1 15
-17 54 -35 45 -21 -3 5 2 9 10 9 9 0 13 -6 10 -14 -3 -8 -1 -11 4 -8 6 3 10 1
10 -5 0 -13 46 -6 66 11 12 10 13 9 8 -5 -6 -17 2 -20 44 -16 12 1 22 -4 23
-12 0 -7 4 -4 9 7 7 16 9 16 9 4 1 -9 8 -20 17 -23 8 -3 12 -2 9 4 -4 6 3 9
15 7 12 -2 26 -10 31 -18 7 -12 13 -7 11 11 0 3 8 6 18 6 14 0 16 -3 8 -13
-13 -16 4 -17 19 -2 8 8 13 7 18 -2 6 -8 4 -10 -5 -4 -8 5 -11 4 -6 -3 9 -14
38 -3 30 12 -3 6 5 0 17 -14 21 -24 22 -24 17 -3 -5 19 -4 20 12 10 10 -6 16
-15 13 -21 -4 -5 -1 -6 6 -2 7 5 10 14 7 21 -5 14 11 15 33 1 8 -5 16 -3 22 5
7 12 9 11 10 -1 1 -8 1 -19 0 -24 -1 -5 5 -3 14 4 9 7 14 19 11 26 -3 7 -1 16
5 19 5 4 9 3 8 -2 -3 -20 2 -34 11 -28 6 4 7 12 4 18 -5 9 -3 9 6 0 11 -10 16
-9 27 5 8 9 12 11 8 5 -8 -16 11 -17 21 -1 5 7 12 5 22 -8 11 -15 13 -15 9 -2
-7 20 16 31 32 15 8 -8 11 -8 11 2 0 7 5 9 13 4 18 -11 38 -13 31 -2 -3 5 -9
7 -14 4 -4 -3 -10 1 -13 9 -6 16 28 11 52 -8 12 -9 12 -7 2 12 -7 13 -10 26
-7 30 3 3 6 1 6 -4 0 -5 9 -10 21 -11 18 -2 19 0 7 14 -11 14 -11 15 2 8 8 -6
26 -10 40 -10 14 0 31 -4 39 -9 10 -7 12 -6 6 4 -6 9 -2 10 15 5 13 -4 20 -3
17 2 -4 5 0 10 8 10 8 0 12 -4 9 -9 -3 -4 0 -8 5 -8 6 0 11 6 11 13 0 7 3 8 8
2 9 -12 45 -13 53 -1 9 12 31 -3 23 -16 -4 -7 -2 -8 5 -4 6 4 9 11 7 15 -3 4
2 8 10 8 8 0 13 -6 10 -14 -3 -7 -3 -13 0 -13 2 0 9 10 14 23 8 20 9 20 10 2
0 -17 2 -17 10 -5 6 10 10 11 10 3 0 -7 7 -13 16 -13 8 0 13 3 10 8 -2 4 9 8
26 9 21 0 26 -2 17 -8 -10 -6 -6 -8 14 -7 28 2 36 13 15 21 -8 3 -6 6 5 6 9 1
17 -6 17 -14 0 -17 16 -20 25 -5 4 6 14 10 23 9 45 -4 73 1 66 14 -5 9 -4 9 6
0 7 -6 19 -9 26 -6 12 4 12 8 2 21 -12 13 -11 14 9 2 12 -8 19 -19 17 -25 -3
-5 1 -2 9 8 15 18 16 18 26 0 7 -12 10 -13 11 -4 0 8 7 11 20 8 11 -3 18 -1
15 3 -3 5 5 9 17 8 38 -1 49 2 43 12 -9 15 2 12 19 -6 14 -13 16 -14 16 0 0 8
5 18 12 22 7 4 8 3 4 -4 -12 -19 12 -14 24 6 9 13 10 13 7 1 -4 -12 3 -16 29
-16 20 0 30 4 22 8 -6 4 -16 5 -22 2 -5 -3 -6 -1 -2 5 3 6 18 8 32 6 21 -4 25
-2 20 11 -3 9 -2 13 4 10 5 -3 20 -8 32 -10 21 -4 22 -3 5 9 -17 13 -16 14 6
12 19 -1 24 -6 22 -23 -1 -12 1 -21 4 -19 3 1 14 -5 24 -16 9 -10 14 -18 9
-18 -4 0 -5 -21 -3 -46 2 -37 0 -45 -10 -38 -11 6 -12 5 -3 -7 6 -8 11 -23 11
-34 0 -11 -5 -26 -11 -34 -8 -11 -8 -13 1 -8 13 8 12 -30 -2 -52 -5 -10 -4
-12 3 -7 13 8 17 -6 5 -18 -11 -10 -11 -46 0 -46 5 0 4 -6 -2 -14 -9 -11 -9
-15 1 -18 11 -4 11 -8 0 -20 -9 -11 -9 -17 -2 -20 8 -2 8 -11 2 -29 -6 -14 -7
-32 -2 -39 5 -8 4 -22 -1 -32 -5 -10 -7 -18 -3 -18 3 0 0 -8 -7 -17 -10 -11
-10 -14 -1 -9 6 4 12 4 13 -1 0 -4 2 -16 4 -26 2 -9 -1 -15 -6 -11 -5 3 -7 9
-5 13 3 4 -1 8 -9 8 -11 0 -12 -4 -4 -13 6 -7 7 -19 3 -25 -4 -7 -3 -9 4 -5 6
3 13 2 17 -4 3 -5 -1 -10 -9 -10 -12 0 -14 -5 -6 -24 7 -18 5 -26 -6 -30 -13
-5 -12 -9 2 -31 13 -20 14 -28 4 -40 -12 -14 -7 -19 15 -16 6 1 -1 -8 -15 -20
-14 -11 -19 -18 -12 -14 11 6 13 -11 11 -79 -1 -48 1 -89 4 -93 4 -3 -1 -12
-11 -19 -14 -11 800 -13 4693 -14 2691 0 4704 4 4696 9 -7 5 -10 14 -7 20 4 6
2 11 -3 11 -6 0 -11 12 -11 26 0 14 -4 23 -8 20 -5 -3 -9 1 -9 9 0 8 5 11 10
8 6 -4 3 4 -5 16 -12 17 -14 31 -8 53 8 25 7 28 -5 18 -11 -9 -12 -7 -8 9 3
12 10 18 17 15 6 -3 3 1 -6 9 -10 8 -15 17 -11 21 11 10 11 46 0 46 -6 0 -5 5
1 13 12 15 -2 57 -20 57 -10 0 -10 2 0 9 18 11 18 12 3 39 -8 15 -8 22 -1 22
6 0 2 10 -10 22 -15 16 -17 24 -8 29 9 6 8 12 -4 26 -8 10 -13 23 -11 30 2 6
-1 15 -8 19 -8 5 -9 3 -4 -6 5 -8 4 -11 -3 -6 -6 4 -9 13 -5 21 3 8 0 15 -6
15 -9 0 -9 5 -1 20 8 16 8 18 -4 14 -8 -3 -17 0 -22 7 -4 8 -3 10 4 5 7 -4 12
-2 12 3 0 6 -4 11 -9 11 -6 0 -8 9 -6 21 4 17 2 19 -10 9 -16 -13 -19 -8 -15
24 1 13 -2 16 -12 10 -9 -5 -8 -2 2 11 9 11 10 16 3 11 -8 -4 -13 -2 -13 4 0
6 -5 8 -12 4 -9 -5 -9 -2 1 9 12 15 11 17 -2 17 -9 0 -19 9 -22 20 -3 11 -11
20 -17 20 -6 0 -6 6 2 15 11 13 10 14 -5 9 -13 -5 -16 -4 -11 4 4 7 2 12 -3
12 -6 0 -11 10 -11 23 0 18 -2 19 -11 7 -9 -12 -10 -10 -6 8 3 13 3 21 0 18
-4 -3 -12 -1 -20 5 -10 9 -11 15 -2 26 10 11 9 12 -5 7 -12 -5 -15 -2 -10 10
4 11 0 16 -12 17 -11 0 -14 3 -6 6 6 2 12 9 12 14 0 6 -5 7 -11 3 -8 -5 -9 -2
-2 11 7 12 6 25 -2 42 -13 24 -10 63 4 63 4 0 8 7 8 16 0 15 -1 15 -12 0 -7
-9 -15 -16 -19 -16 -4 0 1 11 11 24 10 13 23 21 30 19 7 -3 10 5 9 21 -2 14 1
26 5 26 5 0 9 7 9 16 0 9 5 12 12 8 7 -4 8 -3 4 5 -4 6 -12 9 -17 6 -5 -4 -9
-1 -9 4 0 6 4 11 9 11 17 0 19 40 3 50 -10 5 -12 10 -6 10 14 0 15 53 2 61 -5
4 -3 13 6 22 14 14 14 16 -1 22 -10 3 -13 9 -8 13 12 8 13 35 3 42 -4 3 -8 20
-10 38 -1 18 -6 32 -10 32 -5 0 -4 10 3 21 9 17 8 20 -2 14 -9 -6 -11 -2 -6
14 3 12 -1 27 -9 36 -8 8 -14 20 -13 27 3 24 -1 39 -8 35 -5 -3 -9 9 -10 26
-1 17 -8 34 -14 38 -8 5 -7 8 2 13 8 3 4 4 -9 2 -20 -4 -21 -2 -10 11 10 12
10 17 1 20 -7 2 -10 10 -7 17 3 7 -4 23 -16 36 -21 25 -26 35 -11 25 5 -3 13
0 17 6 4 8 3 9 -4 5 -7 -4 -12 -2 -12 4 0 7 -10 20 -22 31 -18 15 -20 20 -10
27 11 7 10 11 -3 16 -10 3 -15 12 -11 21 3 8 1 15 -5 15 -6 0 -9 7 -5 15 3 9
-3 20 -14 27 -11 7 -20 16 -20 21 0 4 6 5 13 1 8 -6 8 -3 -1 9 -8 9 -11 21 -7
27 6 9 -7 14 -30 11 -5 -1 -2 5 8 13 14 10 15 15 5 19 -10 4 -10 6 0 6 6 1 12
5 12 11 0 5 -6 7 -13 4 -8 -3 -13 3 -13 15 0 15 4 17 13 10 9 -8 11 -6 8 10
-2 12 0 21 5 21 5 0 7 9 5 19 -3 14 1 18 11 14 8 -3 14 -1 14 5 0 6 -6 13 -12
15 -9 4 -8 6 2 6 8 1 21 11 29 23 l14 23 -23 -20 -23 -20 14 23 c8 12 20 22
28 22 11 0 11 3 0 17 -10 11 -10 14 -1 9 8 -5 12 -1 12 13 0 11 10 27 23 37
14 10 16 14 5 11 -12 -4 -15 -2 -11 8 3 8 9 12 14 9 5 -3 9 2 9 10 0 28 1 31
16 39 13 7 13 11 2 25 -11 13 -10 15 5 9 15 -6 16 -4 7 13 -9 16 -8 22 5 26 8
3 12 10 9 15 -3 5 -1 9 4 9 5 0 12 9 15 20 3 13 1 18 -6 13 -7 -3 -3 4 8 17
13 15 15 21 5 16 -9 -5 -8 -2 2 7 10 8 15 17 12 20 -3 3 -1 15 6 26 8 16 8 21
-2 21 -8 0 -6 5 5 11 14 8 15 14 6 31 -8 15 -8 19 0 14 6 -4 11 -4 12 1 0 4 2
16 4 26 2 13 -1 17 -11 13 -9 -3 -12 -1 -9 4 3 6 13 10 22 10 13 0 13 3 3 15
-7 8 -8 15 -3 15 10 0 10 41 -1 58 -4 8 -3 11 5 10 6 -2 14 3 17 11 3 10 0 12
-14 7 -17 -7 -17 -6 0 13 14 16 16 24 8 34 -9 10 -8 17 0 25 9 9 9 12 -1 12
-11 0 -11 3 -1 15 10 12 10 18 0 30 -10 12 -10 15 1 15 11 0 11 2 -1 10 -12 8
-12 10 -1 10 11 0 11 3 1 15 -10 12 -10 18 0 30 10 12 10 15 -1 16 -8 0 -5 4
6 9 l20 9 -20 0 c-15 1 -17 3 -6 10 11 7 11 9 0 14 -11 4 -12 7 -1 18 6 7 12
20 12 29 0 13 -1 13 -10 0 -6 -9 -10 -10 -10 -3 0 6 4 14 10 18 5 3 6 13 3 22
-5 11 -3 14 6 8 10 -6 11 -3 2 14 -7 11 -8 21 -4 21 4 0 9 11 9 25 1 18 -2 23
-10 18 -7 -4 -4 -1 6 9 13 12 15 18 6 21 -10 4 -9 6 1 6 11 1 11 4 1 16 -10
12 -9 16 2 20 7 3 13 17 12 33 -1 15 3 33 9 40 5 7 7 15 4 18 -3 4 1 13 9 22
12 11 12 17 4 22 -9 6 -9 9 1 13 11 4 11 6 1 6 -10 1 -10 4 0 15 7 8 17 11 22
8 5 -3 6 0 2 6 -4 6 -14 8 -24 5 -14 -5 -13 -2 3 11 11 10 14 15 8 11 -9 -4
-11 -1 -7 9 3 9 11 16 17 16 8 0 8 3 0 11 -14 14 -5 41 11 32 6 -4 4 2 -4 12
-14 17 -13 18 3 12 16 -6 16 -5 1 17 -11 18 -12 26 -3 32 8 5 9 3 4 -6 -5 -9
-4 -11 4 -6 9 6 9 11 0 23 -10 11 -10 16 0 23 8 5 9 10 3 14 -6 3 -8 15 -5 26
3 11 9 18 13 15 5 -3 11 -1 14 4 4 5 1 13 -5 17 -8 5 -9 3 -4 -7 5 -8 4 -10 0
-6 -12 10 -15 38 -4 31 5 -3 9 0 9 6 0 6 5 8 12 4 7 -4 8 -3 4 5 -4 6 -13 8
-19 4 -7 -3 -3 4 7 16 20 22 20 22 0 16 -17 -6 -18 -6 -1 5 9 6 15 15 12 21
-4 5 -2 9 3 9 12 0 36 75 28 89 -4 6 -1 9 7 5 8 -3 17 2 21 11 3 9 2 13 -4 10
-6 -4 -5 5 1 19 7 14 17 22 23 19 6 -4 5 1 -3 11 -12 15 -12 19 4 34 11 10 15
11 10 3 -6 -10 -4 -12 4 -7 7 5 10 14 7 22 -3 7 -1 16 5 19 5 4 7 11 4 16 -3
5 1 6 9 3 9 -3 16 -1 16 5 0 6 -4 11 -10 11 -5 0 -10 4 -10 10 0 5 3 9 8 9 20
-3 33 2 27 11 -4 6 -12 7 -18 3 -7 -3 -4 3 6 14 9 11 14 23 10 28 -5 4 -2 5 5
1 23 -14 34 5 15 26 -18 20 -18 21 3 10 15 -8 21 -8 22 1 0 7 3 22 6 35 3 12
1 20 -4 17 -5 -3 -12 0 -16 6 -4 7 -3 9 4 5 6 -3 13 3 17 14 3 11 11 20 16 20
6 0 7 5 4 10 -4 6 -1 18 7 27 9 12 9 15 1 9 -9 -5 -11 -2 -7 9 5 13 9 13 22 3
13 -11 12 -8 -1 13 -16 23 -16 28 -2 39 8 7 15 21 15 31 0 11 6 19 13 19 8 0
7 4 -3 10 -14 9 -7 14 13 11 4 -1 3 8 -3 19 -8 16 -8 18 4 14 11 -4 14 0 11
16 -3 17 -1 20 12 15 15 -5 14 -3 -1 14 -18 20 -18 20 4 16 13 -2 20 -2 17 2
-4 3 1 12 11 20 13 10 14 13 2 11 -8 -2 -18 -7 -21 -12 -4 -4 -10 -3 -13 3 -4
6 -2 11 4 11 6 0 8 5 5 10 -4 6 -1 9 7 8 8 -2 12 5 10 21 -2 18 1 21 11 13 10
-8 13 -6 13 8 0 10 -5 16 -11 12 -5 -3 -4 1 2 9 10 12 10 18 0 28 -9 10 -9 11
4 6 10 -4 20 -1 25 6 4 7 2 15 -4 17 -8 2 -7 8 3 19 13 12 13 18 3 31 -11 13
-11 14 1 7 11 -6 13 -3 9 13 -4 13 -1 25 7 30 8 4 14 12 15 17 1 6 6 9 12 7 5
-1 7 2 3 8 -3 5 -3 16 2 23 11 17 10 31 -2 39 -5 4 1 8 15 8 14 0 20 4 14 8
-13 8 -15 44 -2 36 5 -3 5 -10 2 -16 -4 -7 -2 -8 4 -4 6 4 9 13 5 21 -3 9 1
22 8 31 10 13 10 17 -2 25 -10 6 -11 9 -1 9 7 0 11 4 7 9 -3 5 3 12 12 14 17
4 17 5 0 6 -10 0 -15 6 -12 11 4 6 12 7 18 3 8 -4 8 -1 -1 9 -10 13 -10 19 5
34 20 20 23 42 8 63 -8 12 -6 12 13 2 l23 -12 -18 27 c-10 16 -13 25 -7 21 13
-8 27 19 18 34 -3 5 3 9 13 9 11 0 14 3 7 8 -13 8 -14 73 -1 65 15 -9 37 18
28 35 -6 10 -4 21 6 31 14 13 13 16 -3 22 -19 7 -19 8 0 8 16 1 17 3 5 19 -7
9 -9 14 -5 10 9 -8 35 19 36 37 0 6 -5 3 -11 -5 -9 -12 -10 -12 -5 3 3 10 6
21 6 23 0 3 5 2 10 -1 6 -3 10 1 10 10 0 10 -5 13 -12 9 -7 -4 -8 -3 -4 5 4 6
12 9 17 6 5 -4 9 1 9 9 0 8 8 17 18 19 16 4 16 5 0 6 -16 1 -16 4 2 36 11 20
19 39 19 43 -3 19 2 33 10 28 5 -4 8 2 7 11 -2 10 4 23 12 29 12 9 12 13 2 19
-9 6 -11 4 -5 -5 5 -9 4 -11 -4 -6 -6 4 -9 12 -5 17 3 5 10 6 16 3 7 -5 9 0 6
14 -4 12 -1 20 4 19 6 -1 13 4 16 12 3 9 0 11 -8 6 -9 -5 -11 -4 -6 4 6 9 11
9 22 0 13 -10 13 -8 4 16 -6 15 -8 30 -5 33 3 3 5 0 5 -7 0 -7 5 -9 10 -6 8 5
7 12 -2 23 -7 9 -8 13 -2 9 7 -4 18 1 25 10 8 10 9 14 2 10 -8 -5 -11 -1 -10
12 1 12 6 17 15 13 12 -4 12 -1 3 16 -8 15 -8 23 0 28 8 4 7 9 -2 15 -8 5 -9
9 -3 9 7 0 10 70 8 223 -2 223 -3 242 -17 264 -6 9 -3 11 10 6 16 -6 16 -5 4
10 -7 9 -11 23 -8 31 4 9 1 13 -6 10 -7 -2 -12 5 -12 20 0 13 4 21 10 18 6 -3
4 2 -4 12 -12 14 -12 19 -2 26 11 6 11 9 0 12 -11 4 -11 10 -3 25 9 14 9 23
-2 37 -7 11 -11 23 -8 28 3 5 0 16 -8 25 -9 12 -9 15 0 9 6 -4 12 -2 12 3 0 6
-4 11 -10 11 -5 0 -10 5 -10 11 0 5 4 7 10 4 6 -3 7 1 4 9 -3 9 -10 13 -15 10
-5 -3 -5 6 1 20 6 18 6 26 -1 26 -6 0 -7 5 -4 10 3 6 0 10 -7 10 -9 0 -9 3 2
10 13 9 13 10 0 10 -13 0 -13 1 0 10 10 6 11 10 3 10 -7 0 -13 5 -13 11 0 5 4
8 9 5 5 -4 8 2 6 11 -2 10 -4 22 -4 26 -1 5 -7 5 -13 2 -7 -4 -4 1 6 9 15 12
16 16 5 16 -12 0 -12 2 1 10 12 8 12 10 1 10 -11 0 -11 3 0 17 10 11 10 14 2
9 -7 -4 -13 -3 -13 3 0 5 5 13 10 16 7 4 7 13 0 26 -8 14 -7 19 2 19 8 0 5 5
-5 11 -12 7 -15 15 -9 22 5 7 12 19 15 28 4 13 0 16 -16 13 -12 -2 -16 -2 -9
2 15 7 16 34 1 34 -6 0 -8 9 -4 21 5 14 3 19 -3 15 -6 -3 -13 -2 -16 3 -3 5 2
12 11 16 16 5 15 8 -7 25 -23 18 -23 20 -5 20 18 1 18 2 -2 10 -27 11 -31 22
-5 13 16 -6 16 -5 0 13 -16 19 -16 21 -1 37 15 15 15 17 -7 25 -20 8 -21 9 -5
15 12 5 14 11 8 20 -6 6 -13 22 -16 35 -5 20 -3 21 10 10 15 -12 15 -11 4 10
-6 12 -9 22 -6 22 3 0 1 9 -5 19 -7 14 -6 21 3 24 9 4 9 6 -1 6 -7 1 -10 6 -7
11 3 6 1 10 -6 10 -7 0 -5 8 6 20 18 20 18 21 0 14 -15 -6 -17 -4 -12 10 4 10
1 19 -8 22 -8 4 -15 17 -15 31 0 16 -4 22 -12 17 -7 -4 -10 -4 -6 1 4 4 2 15
-5 23 -9 13 -9 14 1 8 6 -4 12 -2 12 3 0 6 -6 11 -12 11 -9 0 -8 4 2 10 13 9
13 10 0 11 -8 1 -17 1 -20 1 -3 0 -7 9 -7 20 -1 11 -9 28 -17 37 -12 13 -13
20 -4 29 9 9 9 12 -2 12 -7 0 -10 3 -7 7 4 3 -1 15 -10 25 -15 17 -15 20 -3
28 10 7 11 10 3 10 -7 0 -13 9 -13 21 0 11 -3 18 -7 16 -5 -3 -8 5 -8 18 0 13
3 21 8 18 4 -2 7 1 7 6 0 6 -7 11 -16 11 -8 0 -12 5 -8 11 3 6 0 15 -7 20 -10
6 -11 9 -1 9 19 0 14 20 -5 20 -10 0 -14 4 -8 8 14 10 17 32 5 32 -5 0 -6 7
-3 17 4 10 2 14 -4 10 -5 -3 -10 0 -10 8 0 8 4 12 9 9 4 -3 8 0 8 5 0 6 -7 11
-15 11 -9 0 -12 6 -8 17 5 12 3 14 -8 8 -12 -7 -12 -6 -1 7 11 14 10 20 -7 37
-13 13 -16 21 -8 25 9 3 8 5 -1 5 -7 1 -10 6 -6 13 5 7 2 9 -9 5 -11 -4 -14
-2 -10 9 3 7 0 14 -7 14 -6 0 -8 5 -5 10 3 6 1 10 -6 10 -8 0 -7 5 2 17 10 11
10 14 2 9 -8 -4 -13 -2 -13 4 0 6 -5 8 -12 4 -8 -5 -7 0 2 11 9 11 10 16 3 11
-9 -5 -13 -1 -13 13 0 11 -5 23 -12 27 -7 5 -8 3 -3 -7 8 -12 6 -12 -8 0 -9 7
-17 19 -17 25 0 6 5 4 11 -4 9 -12 10 -12 5 3 -3 10 -6 21 -6 23 0 2 -7 4 -16
4 -13 0 -14 3 -4 15 10 12 8 14 -7 11 -13 -3 -19 2 -21 17 0 12 -6 23 -12 25
-8 3 -8 8 0 18 9 10 8 12 -8 9 -21 -4 -26 23 -7 38 6 5 -1 5 -15 2 -20 -6 -22
-5 -13 5 16 17 5 40 -19 40 -17 0 -18 2 -8 15 11 13 10 14 -5 9 -12 -5 -16 -4
-11 4 3 6 -3 17 -14 25 -11 7 -17 17 -13 20 3 4 1 7 -7 7 -10 0 -10 3 0 16 8
8 9 14 4 13 -23 -4 -31 3 -28 27 2 21 0 23 -12 13 -15 -12 -17 -7 -14 29 1 17
-4 22 -22 22 -13 0 -18 4 -13 8 19 14 15 32 -7 33 -13 0 -17 3 -10 6 6 2 12 9
12 14 0 6 -4 7 -10 4 -6 -3 -10 4 -10 17 0 18 -2 20 -10 8 -8 -12 -10 -11 -11
8 -2 27 -3 30 -17 62 -6 14 -11 18 -11 9 -1 -8 5 -21 12 -29 10 -12 9 -12 -5
-1 -10 7 -18 20 -18 28 0 9 -5 11 -12 7 -10 -6 -10 -4 0 8 10 13 10 18 1 24
-7 4 -9 3 -6 -3 3 -5 0 -10 -7 -10 -8 0 -11 9 -8 22 2 13 -2 26 -9 30 -8 5
-10 4 -5 -3 4 -7 3 -12 -2 -12 -5 0 -12 9 -15 20 -3 13 -1 18 6 14 7 -3 3 2
-7 10 -11 9 -24 16 -29 16 -5 0 -4 6 2 14 9 11 9 16 0 22 -8 5 -10 3 -4 -7 4
-8 -3 -3 -16 11 -15 15 -21 28 -14 32 6 5 5 8 -2 8 -7 0 -13 7 -13 15 0 8 -5
15 -11 15 -5 0 -7 -5 -3 -12 4 -7 3 -8 -5 -4 -6 4 -9 12 -6 17 8 12 -20 40
-31 31 -5 -4 -2 2 6 12 10 13 10 17 3 12 -7 -4 -13 -3 -13 2 0 5 -10 14 -22
21 -19 9 -19 11 -3 6 l20 -5 -20 16 c-11 8 -19 20 -17 26 2 6 -4 8 -13 4 -9
-3 -13 -2 -10 4 3 6 1 10 -5 10 -7 0 -10 7 -6 15 6 16 -27 39 -39 27 -3 -4 -5
-2 -3 4 1 6 -10 23 -27 38 -16 15 -24 24 -16 20 9 -5 12 -3 7 4 -4 7 -13 12
-21 12 -22 0 -48 42 -32 53 7 5 3 6 -10 2 -14 -4 -23 -2 -23 5 0 6 -5 8 -12 4
-10 -6 -10 -4 0 8 12 14 10 16 -10 10 -21 -5 -22 -4 -8 13 9 11 10 16 3 11 -7
-4 -13 -2 -13 3 0 6 -10 11 -21 11 -19 0 -20 2 -8 17 8 9 9 14 4 11 -16 -10
-36 6 -38 30 0 11 -4 20 -7 20 -29 -3 -41 4 -36 18 5 14 4 15 -9 4 -9 -7 -18
-10 -22 -6 -3 3 -1 6 5 6 7 0 12 5 12 11 0 5 -4 7 -10 4 -5 -3 -10 1 -10 9 0
10 -9 16 -22 16 -19 0 -20 2 -8 10 12 8 11 10 -7 10 -12 0 -25 5 -29 12 -4 6
-3 8 3 5 5 -3 10 0 10 8 0 8 -2 13 -5 10 -2 -2 -21 8 -40 23 -20 15 -32 20
-27 12 4 -8 -1 -6 -12 5 -12 11 -20 24 -19 30 0 5 -6 9 -14 10 -8 1 -14 6 -12
13 3 15 -11 15 -26 0 -7 -7 -12 -8 -12 -2 0 6 6 16 13 23 6 7 8 12 2 11 -23
-5 -46 1 -40 9 3 5 -3 12 -14 16 -11 3 -22 12 -25 20 -3 8 -11 15 -18 15 -9 0
-9 -3 2 -11 13 -9 13 -10 0 -6 -8 2 -16 13 -18 25 -2 12 -8 20 -13 17 -5 -4
-9 -1 -9 6 0 9 -3 9 -14 0 -12 -10 -13 -8 -9 8 4 16 1 21 -15 21 -12 0 -24 5
-27 10 -4 6 -11 8 -16 5 -5 -3 -6 1 -3 9 3 9 1 16 -6 16 -6 0 -8 5 -4 13 5 8
2 8 -9 -2 -15 -12 -17 -11 -17 4 0 9 -9 19 -20 22 -11 3 -17 9 -14 14 3 5 -1
9 -10 9 -8 0 -17 -6 -20 -12 -3 -7 -3 -2 0 11 4 14 2 21 -4 17 -5 -3 -13 1
-16 10 -5 14 -9 14 -23 3 -12 -10 -14 -10 -9 -1 4 7 2 12 -4 12 -6 0 -8 5 -5
10 3 6 -1 10 -10 10 -11 0 -15 5 -12 15 4 8 1 17 -5 21 -7 4 -8 3 -4 -4 4 -7
1 -12 -8 -12 -9 0 -16 7 -16 16 0 11 -5 14 -16 10 -12 -4 -15 -2 -10 9 3 9 -3
19 -17 26 -20 11 -21 11 -8 -5 8 -9 11 -19 7 -23 -3 -3 -6 -1 -6 6 0 7 -5 9
-12 5 -6 -4 -8 -3 -5 3 10 15 -22 53 -38 47 -18 -7 -20 12 -2 20 6 3 1 3 -12
0 -20 -5 -23 -3 -17 11 6 16 4 16 -11 4 -10 -8 -14 -9 -10 -2 5 7 -1 16 -13
23 -11 6 -20 8 -20 4 0 -3 -6 -1 -13 5 -8 6 -17 8 -21 4 -4 -4 -4 1 0 12 4 11
3 16 -1 12 -5 -4 -15 3 -23 15 -11 19 -12 20 -8 3 6 -19 5 -19 -8 -2 -7 9 -18
17 -23 17 -6 0 -13 8 -15 18 -3 10 -15 18 -29 19 -13 1 -25 7 -27 13 -2 5 -8
8 -13 4 -8 -5 -13 9 -10 28 0 4 -7 4 -16 1 -12 -5 -15 -2 -11 9 5 11 0 14 -19
10 -18 -3 -24 -1 -19 7 7 10 -6 16 -28 12 -5 -1 -4 5 3 13 11 13 9 15 -10 11
-17 -4 -20 -2 -11 7 20 20 14 26 -27 24 -22 -1 -39 0 -39 3 2 19 -4 24 -12 11
-8 -12 -10 -10 -10 9 0 19 -4 22 -21 18 -17 -5 -18 -3 -7 11 10 12 10 14 1 8
-7 -4 -13 -3 -13 2 0 6 -8 8 -18 5 -10 -2 -24 3 -31 11 -8 9 -9 16 -3 16 6 0
13 -6 15 -12 4 -10 6 -10 6 -1 1 19 -19 26 -35 12 -8 -7 -14 -8 -13 -3 4 21
-2 34 -13 32 -7 -2 -12 2 -11 8 1 7 -6 10 -17 7 -12 -3 -20 0 -20 6 0 7 -5 9
-12 5 -10 -6 -10 -5 -1 8 17 19 4 32 -15 15 -10 -7 -13 -8 -9 -1 4 7 -2 14
-14 17 -11 3 -23 15 -26 26 -3 11 -9 19 -13 16 -4 -2 -16 2 -26 10 -15 12 -15
14 -3 9 10 -3 20 0 25 7 4 7 3 10 -4 5 -16 -10 -62 12 -62 29 0 9 -4 13 -10
10 -5 -3 -10 1 -10 9 0 9 -9 16 -20 16 -11 0 -20 5 -20 11 0 5 5 7 10 4 16
-10 11 1 -7 16 -11 10 -14 10 -9 2 4 -7 4 -13 1 -13 -11 0 -35 28 -36 42 0 7
-4 4 -9 -7 -8 -18 -9 -18 -9 -2 -1 11 -7 17 -18 15 -10 -2 -18 2 -18 7 -1 16
-24 52 -25 38 0 -7 -7 -13 -16 -13 -8 0 -13 4 -10 9 3 5 -1 12 -10 15 -9 3
-12 11 -8 18 5 10 4 10 -7 0 -12 -11 -12 -14 1 -22 8 -5 10 -10 5 -10 -19 0
-34 22 -27 39 5 14 3 14 -10 3 -14 -11 -17 -10 -23 7 -4 14 -15 21 -31 21 -14
0 -23 4 -20 8 3 5 -1 9 -9 10 -8 1 -22 3 -29 4 -12 1 -13 6 -4 22 11 20 10 20
-9 3 -19 -16 -21 -16 -46 10 -14 16 -33 34 -42 41 -8 7 -13 17 -10 22 3 4 -5
6 -17 4 -13 -2 -17 -1 -10 2 10 5 8 10 -7 21 -12 8 -19 19 -16 24 4 5 -1 9 -9
9 -9 0 -16 5 -16 11 0 5 -6 7 -12 3 -9 -5 -9 -2 1 9 12 15 11 17 -5 18 -11 1
-22 1 -25 1 -3 -1 -6 6 -6 13 0 12 4 12 16 3 9 -6 4 0 -11 15 -15 15 -34 27
-43 27 -13 0 -19 12 -16 33 0 4 -6 7 -15 7 -9 0 -12 -5 -8 -12 5 -7 3 -8 -5
-4 -7 5 -10 15 -7 23 4 9 2 11 -7 6 -18 -11 -38 -13 -31 -2 3 5 10 7 15 4 5
-3 6 1 3 10 -5 12 -9 13 -20 4 -12 -10 -13 -8 -7 7 6 17 5 17 -10 5 -15 -12
-17 -12 -11 4 5 13 4 16 -4 11 -7 -4 -12 -1 -12 8 0 9 -5 16 -11 16 -5 0 -7 5
-4 10 3 6 -1 10 -10 10 -9 0 -14 4 -11 9 6 10 -28 53 -36 45 -3 -2 -4 7 -2 21
2 22 0 24 -12 14 -12 -10 -13 -9 -8 6 5 12 4 16 -4 11 -7 -4 -10 1 -7 14 2 13
-1 20 -11 20 -9 0 -12 -5 -8 -12 4 -7 3 -8 -5 -4 -9 6 -9 11 1 24 10 12 10 14
1 8 -8 -4 -13 -1 -13 8 0 9 -5 16 -11 16 -5 0 -7 -6 -3 -12 5 -9 2 -9 -9 1
-18 15 -23 26 -7 16 6 -3 10 -3 10 0 0 11 -28 35 -41 35 -9 0 -9 3 0 14 9 11
9 16 0 22 -8 4 -9 3 -5 -4 4 -7 1 -12 -8 -12 -10 0 -13 6 -9 17 5 13 2 15 -11
10 -10 -4 -15 -3 -11 3 9 14 -4 50 -18 50 -8 0 -8 -3 1 -12 7 -7 12 -16 12
-22 0 -5 -6 -1 -14 10 -11 14 -12 22 -3 33 10 11 8 13 -13 7 -18 -5 -21 -5
-10 3 16 11 15 12 -15 30 -16 10 -16 11 -2 7 17 -5 17 -5 0 18 -10 13 -22 21
-28 18 -5 -3 -3 3 5 13 9 11 10 16 3 11 -8 -4 -13 -1 -13 8 0 9 -8 16 -17 16
-15 0 -16 2 -3 10 12 8 11 10 -7 10 -13 0 -23 4 -23 10 0 5 6 8 13 6 6 -1 9
-1 4 1 -4 3 -5 9 -2 14 4 5 -1 6 -9 3 -11 -4 -16 0 -16 15 0 12 -4 21 -10 21
-5 0 -10 5 -10 11 0 5 5 7 12 3 7 -4 8 -3 4 5 -4 6 -11 9 -16 6 -4 -3 -11 6
-14 20 -4 14 -12 25 -19 25 -8 0 -7 4 3 10 13 8 12 10 -2 10 -10 0 -18 5 -18
11 0 5 5 7 11 3 8 -5 8 -1 0 14 -6 11 -16 23 -23 25 -10 4 -10 6 0 6 7 1 10 6
7 11 -5 8 -11 8 -19 1 -10 -8 -11 -4 -8 17 3 22 -2 31 -20 40 -12 7 -15 10 -6
8 12 -4 15 -1 11 10 -3 7 -10 14 -15 14 -6 0 -4 8 3 17 12 15 12 16 -3 10 -13
-4 -15 -2 -11 10 5 12 3 14 -6 8 -10 -5 -11 -2 -6 14 4 12 2 21 -4 21 -6 0
-11 5 -11 11 0 5 4 8 8 5 5 -3 9 1 9 8 0 9 -7 12 -16 8 -14 -5 -14 -3 -3 10 8
10 9 19 3 22 -5 4 -14 -1 -19 -11 -9 -14 -10 -13 -9 9 1 14 6 24 11 20 5 -3 6
0 2 6 -4 7 -13 12 -20 12 -14 0 -41 53 -41 80 0 9 -9 15 -22 14 -13 -1 -20 3
-16 9 4 6 0 8 -10 4 -11 -4 -15 -1 -12 14 2 10 0 19 -4 19 -5 0 -8 8 -8 18 0
39 -3 53 -11 48 -5 -3 -9 1 -9 9 0 8 4 12 8 9 9 -5 5 43 -4 53 -12 11 -8 24 6
17 6 -4 5 1 -4 12 -11 13 -14 25 -9 39 13 32 11 38 -7 24 -17 -13 -17 -13 -1
6 12 14 14 25 8 35 -14 23 -12 30 8 23 14 -5 13 -3 -3 10 -14 12 -16 16 -6 17
11 0 9 4 -5 15 -19 15 -19 15 1 9 16 -6 18 -5 8 7 -18 19 -16 29 5 22 11 -4 9
1 -8 16 -14 12 -20 20 -13 17 8 -4 11 12 11 54 -1 33 -4 57 -9 55 -4 -3 -6 3
-4 12 2 10 4 22 4 26 1 5 6 5 12 1 6 -3 3 5 -6 20 -10 14 -13 26 -7 26 12 0
11 18 -2 39 -6 9 -5 12 1 8 12 -7 11 78 -1 90 -3 3 -1 12 5 20 9 10 8 13 0 13
-7 0 -9 5 -5 11 11 18 15 71 5 65 -8 -6 -7 17 4 84 5 27 3 32 -6 20 -9 -13
-10 -12 -5 3 3 10 6 21 6 23 0 3 5 2 10 -1 15 -9 12 2 -6 19 -8 9 -11 16 -5
16 6 0 9 13 7 30 -2 22 1 30 13 30 14 0 14 2 1 10 -14 9 -13 11 10 14 6 0 15
8 20 16 5 8 10 10 10 4 0 -7 10 -14 23 -17 22 -6 22 -6 2 10 -20 15 -19 15 4
8 18 -5 22 -4 16 5 -5 9 -4 11 4 6 6 -4 9 -11 6 -16 -3 -5 -1 -12 5 -15 6 -4
10 -3 9 2 -3 20 2 25 16 13 9 -7 18 -10 22 -6 3 3 1 6 -5 6 -7 0 -12 4 -12 10
0 5 7 6 17 3 12 -5 14 -3 8 8 -7 12 -6 12 7 1 11 -9 18 -10 23 -2 3 6 11 7 17
4 7 -4 8 -2 4 5 -6 9 -11 9 -22 0 -8 -7 -14 -7 -14 -1 0 12 29 24 41 16 5 -3
9 0 9 6 0 6 5 8 13 4 9 -6 9 -4 -1 8 -11 14 -10 16 5 13 25 -4 38 6 22 16 -11
7 -11 9 -1 9 22 0 37 23 36 57 0 18 3 30 8 27 5 -3 6 -9 3 -14 -3 -5 0 -12 6
-16 8 -4 9 -3 5 4 -4 7 -1 12 6 12 10 0 9 3 -2 11 -11 8 -12 12 -2 16 6 2 10
9 6 14 -3 5 0 9 7 9 8 0 8 4 -1 15 -10 12 -9 16 4 21 9 3 16 10 16 16 0 5 -6
6 -12 3 -7 -4 -4 1 6 9 20 16 31 60 13 49 -6 -4 -7 -1 -3 6 5 7 14 10 20 8 9
-4 12 5 11 24 -1 22 2 28 12 25 8 -3 11 -2 8 3 -3 5 -1 12 4 16 6 3 8 12 4 20
-3 9 0 22 7 30 10 12 10 15 -1 16 -8 0 -3 5 10 10 20 8 22 11 10 26 -12 14
-12 16 2 11 9 -4 16 -1 16 8 0 7 -4 11 -8 8 -4 -2 -10 0 -13 5 -3 5 2 11 12
13 10 3 18 15 19 27 1 12 -2 19 -8 16 -13 -9 -11 9 4 24 10 11 9 12 -3 6 -12
-7 -13 -6 -3 7 7 8 10 18 6 22 -11 10 -12 37 -2 30 5 -3 6 -11 2 -17 -4 -7 0
-6 10 2 18 14 24 26 8 17 -13 -8 -19 39 -8 59 7 13 6 16 -2 11 -6 -4 -11 -2
-11 3 0 6 8 11 18 12 11 1 9 4 -8 9 -21 7 -22 8 -5 9 17 1 17 3 5 11 -9 6 -11
10 -3 10 7 0 10 7 6 17 -4 11 -3 14 6 9 6 -4 2 9 -9 28 -11 20 -15 36 -10 36
6 0 10 9 10 19 0 11 5 21 12 23 7 3 5 7 -6 11 -11 5 -15 3 -10 -5 4 -7 3 -8
-4 -4 -9 5 -7 14 4 32 16 23 16 24 -2 17 -17 -6 -18 -5 -4 13 8 10 20 22 25
26 7 5 6 8 -1 8 -5 0 -16 -6 -23 -12 -11 -10 -13 -10 -7 0 4 7 2 12 -6 12 -8
0 -6 5 5 11 9 5 17 15 17 22 0 7 -4 6 -10 -3 -7 -11 -10 -7 -10 18 0 18 5 32
13 33 6 0 -1 7 -18 14 -20 10 -24 14 -12 15 17 0 17 1 3 16 -18 17 -21 28 -7
19 5 -3 12 -1 16 5 3 5 0 10 -8 10 -8 0 -18 7 -21 16 -10 26 -7 29 8 9 13 -18
14 -18 9 8 -3 16 -12 27 -22 28 -12 0 -11 2 4 9 11 5 15 9 8 9 -6 1 -10 12 -9
26 2 13 0 22 -5 20 -4 -3 -10 -1 -13 4 -4 5 -1 13 5 17 8 4 9 3 5 -4 -5 -8 -1
-10 10 -5 11 4 13 8 6 11 -7 2 -10 8 -7 13 4 5 -2 6 -12 3 -17 -5 -17 -5 0 9
21 18 22 28 1 20 -14 -5 -15 -3 -5 15 8 15 8 22 1 22 -5 0 -10 5 -10 11 0 5 6
7 13 3 7 -5 6 -1 -3 10 -19 24 -19 58 0 73 13 10 11 12 -8 8 -20 -4 -22 -2
-12 10 10 11 10 15 1 15 -7 0 -9 5 -6 10 3 6 2 10 -3 10 -5 0 -24 19 -42 43
-32 40 -32 41 -5 17 16 -14 24 -18 17 -9 -6 9 -8 20 -4 24 4 5 2 5 -4 2 -14
-8 -47 26 -37 38 5 4 3 5 -4 1 -7 -4 -10 -14 -7 -24 5 -16 5 -16 -9 0 -8 10
-18 14 -23 10 -4 -4 -3 1 4 10 12 14 10 16 -10 11 -18 -4 -20 -3 -8 6 12 9 11
11 -8 11 -13 0 -21 4 -17 9 3 6 -3 8 -15 6 -11 -2 -23 1 -26 7 -4 7 -2 8 4 4
7 -4 12 -2 12 3 0 6 -5 11 -11 11 -5 0 -7 5 -4 10 4 6 11 8 16 5 5 -3 6 2 2
11 -5 13 -3 15 8 9 12 -8 12 -6 0 8 -15 18 -26 23 -16 7 3 -5 2 -10 -3 -10 -5
0 -9 13 -8 29 1 26 3 28 21 18 19 -9 19 -9 5 8 -14 17 -13 18 3 12 26 -10 20
1 -10 17 -22 12 -24 15 -9 16 13 0 17 5 13 19 -3 14 -1 18 9 14 10 -4 12 0 8
11 -3 9 -11 13 -18 9 -6 -3 -1 5 12 19 16 18 18 25 8 25 -8 0 -12 -5 -9 -10 3
-6 1 -7 -5 -3 -11 7 -6 36 6 34 20 -2 23 4 11 19 -8 9 -13 18 -11 20 6 8 1 24
-6 19 -5 -3 -9 1 -9 9 0 8 4 12 8 9 4 -2 11 6 15 18 10 32 12 58 3 53 -4 -3
-12 2 -19 10 -11 13 -10 14 6 9 18 -7 18 -6 -1 16 l-20 23 20 -6 c17 -6 17 -5
-2 9 -24 17 -30 34 -12 34 5 0 7 -4 4 -10 -3 -5 -2 -10 4 -10 5 0 9 9 8 20 -1
12 -7 18 -14 16 -7 -3 -15 0 -19 6 -4 6 -3 9 2 6 5 -3 15 1 23 9 12 13 11 15
-10 9 -13 -3 -18 -3 -11 0 6 3 9 11 6 16 -5 7 -2 8 6 3 10 -6 12 -4 6 10 -4
10 -2 21 4 25 8 5 6 9 -5 13 -10 5 -14 3 -9 -5 4 -7 3 -8 -5 -4 -17 11 -1 28
21 23 20 -6 20 -5 2 12 -11 10 -22 17 -26 14 -4 -2 -5 3 -2 11 3 9 10 14 14
11 5 -3 12 0 16 6 4 7 3 9 -2 6 -6 -3 -16 3 -23 15 -7 11 -8 17 -3 14 6 -3 12
1 16 9 3 8 0 15 -7 15 -8 0 -8 3 2 9 10 7 11 9 1 13 -8 2 -14 12 -16 22 -2 13
2 16 14 11 9 -3 13 -3 9 1 -4 4 -1 14 5 22 10 11 9 16 -5 23 -9 6 -21 19 -27
29 -8 16 -8 18 5 14 8 -3 12 -11 8 -17 -3 -6 -1 -7 5 -3 14 9 -6 45 -22 42 -6
-2 -8 -1 -3 1 4 3 7 12 7 22 0 9 5 22 11 28 8 8 7 13 -2 18 -8 5 -10 4 -5 -3
4 -7 2 -12 -4 -12 -7 0 -9 7 -6 16 3 9 6 18 6 20 0 3 5 2 12 -2 6 -4 8 -3 4 4
-3 6 -15 9 -26 7 -14 -3 -18 0 -13 8 4 7 8 15 8 19 0 3 3 10 7 14 4 3 6 -3 3
-14 -3 -15 0 -19 12 -15 10 4 11 8 3 13 -6 4 -12 11 -13 16 -1 5 -9 8 -17 7
-12 -1 -11 1 3 11 17 13 25 32 9 22 -5 -3 -9 0 -10 7 0 7 -3 22 -6 35 -3 13
-1 20 5 17 5 -4 6 -12 3 -18 -4 -7 -3 -8 1 -4 16 14 14 37 -3 38 -11 0 -12 2
-5 6 9 3 10 10 3 23 -7 14 -6 17 7 16 19 -1 26 30 7 32 -8 1 -21 3 -29 4 -8 1
-12 5 -9 10 3 5 10 6 15 3 5 -4 9 1 9 10 0 10 5 14 13 9 6 -4 4 1 -5 11 -16
17 -16 19 0 31 16 12 15 12 -3 11 -11 -1 -23 -6 -26 -10 -3 -5 -9 -1 -12 8 -4
9 -3 14 2 11 5 -3 12 1 15 10 8 22 8 26 -4 19 -6 -3 -7 1 -4 9 3 9 10 14 14
11 5 -3 12 0 16 6 5 8 3 9 -6 4 -10 -6 -12 -4 -7 8 6 16 -18 32 -34 21 -5 -3
-9 -1 -9 4 0 6 12 13 27 17 21 5 24 8 12 16 -7 5 -18 9 -24 9 -5 0 -3 -5 5
-10 8 -5 10 -10 4 -10 -6 0 -18 8 -25 17 -10 11 -10 14 -1 9 12 -7 15 0 15 36
0 10 4 15 8 12 5 -3 7 -9 4 -13 -2 -5 3 -17 11 -27 9 -10 13 -13 9 -6 -4 7 -1
20 7 29 7 9 8 14 2 10 -7 -4 -17 0 -24 8 -7 8 -10 15 -6 15 4 0 -1 11 -10 25
-9 14 -25 25 -36 25 -15 0 -17 2 -6 14 9 10 15 10 20 3 13 -21 14 -2 2 33 -7
19 -13 31 -14 25 0 -5 -4 -4 -9 4 -11 17 -3 43 11 35 6 -4 5 -10 -3 -15 -10
-6 -7 -8 8 -6 15 1 19 5 13 13 -6 6 -8 13 -5 16 5 5 -10 7 -50 9 -11 1 -14 3
-7 6 19 7 14 26 -5 19 -17 -6 -17 -5 0 8 18 14 24 42 7 31 -5 -3 -10 -2 -10 3
0 6 6 12 14 15 10 4 13 -2 12 -24 -3 -36 7 -45 25 -22 10 12 10 14 2 9 -13 -7
-17 9 -13 48 1 13 -2 16 -12 10 -10 -6 -10 -4 1 9 8 10 10 21 6 25 -4 4 -10 1
-12 -5 -3 -7 -9 -13 -14 -13 -6 0 -8 4 -5 9 4 5 1 11 -6 13 -7 3 -5 7 6 11 10
4 15 3 11 -3 -3 -6 1 -7 10 -4 14 6 13 8 -5 21 -11 8 -18 18 -16 22 3 4 -1 8
-9 8 -13 0 -13 -3 0 -17 13 -15 13 -17 0 -17 -8 0 -13 3 -10 5 10 11 -18 32
-29 23 -8 -7 -12 -3 -13 12 -2 15 0 18 6 8 6 -9 11 -10 15 -2 4 6 1 14 -8 17
-9 3 -12 12 -9 21 5 12 3 14 -8 7 -20 -12 -63 -14 -50 -1 11 11 3 39 -9 32 -5
-3 -12 0 -16 7 -4 7 -4 10 1 6 4 -4 14 0 21 10 18 23 17 32 -2 32 -8 0 -12 -4
-9 -10 3 -5 1 -10 -4 -10 -15 0 -14 12 5 38 8 12 11 22 5 22 -5 0 -14 -8 -19
-17 -6 -9 -17 -18 -26 -19 -9 -1 -14 2 -10 7 3 5 10 6 16 3 8 -5 9 -1 5 10 -4
9 -3 15 1 13 8 -5 32 18 33 30 0 5 10 14 22 21 19 11 19 12 2 6 -11 -4 -28 -7
-38 -8 -10 0 -15 -6 -13 -13 3 -7 2 -15 -3 -17 -11 -7 -10 27 2 42 5 7 7 16 3
19 -4 4 -11 2 -15 -6 -7 -10 -9 -9 -14 3 -4 9 -3 15 1 15 19 -3 29 2 29 16 0
8 -4 15 -9 15 -4 0 -8 -7 -8 -15 0 -8 -3 -14 -7 -14 -5 1 -15 1 -23 0 -13 -1
-13 -2 0 -11 8 -5 11 -12 7 -17 -5 -4 -12 -1 -17 7 -7 11 -4 20 11 33 12 9 16
17 11 17 -6 0 -14 -4 -17 -10 -3 -5 -11 -10 -18 -10 -8 0 -8 3 1 12 15 15 15
28 0 28 -6 0 -8 -3 -5 -7 4 -3 2 -12 -4 -20 -13 -15 -43 -18 -34 -3 4 6 12 7
18 3 7 -4 6 0 -2 10 -13 17 -26 24 -18 10 3 -5 -1 -14 -9 -21 -11 -10 -14 -10
-14 0 0 9 -3 9 -11 -2 -8 -12 -9 -10 -4 7 5 19 3 22 -12 17 -13 -5 -12 -2 5
10 12 10 27 14 32 11 6 -4 9 -1 8 7 -2 7 4 12 13 10 9 -1 24 8 35 20 19 23 19
23 -2 6 -23 -20 -39 -24 -29 -8 3 6 1 10 -5 10 -6 0 -9 4 -6 9 4 5 -4 7 -16 4
-22 -4 -23 -4 -4 11 11 9 17 16 14 16 -10 0 -63 -30 -55 -31 4 -1 12 -2 17 -3
6 0 15 -8 20 -16 8 -12 10 -12 10 -1 0 8 3 12 6 8 3 -3 3 -11 -2 -18 -5 -9
-11 -7 -21 6 -7 11 -13 13 -13 7 0 -7 -5 -12 -11 -12 -5 0 -8 4 -4 9 3 5 1 12
-5 16 -6 4 -7 11 -4 17 5 8 1 9 -10 5 -10 -4 -15 -3 -11 3 3 6 2 10 -4 10 -5
0 -12 -5 -14 -10 -3 -6 -4 -5 -3 2 2 7 11 12 20 12 10 -1 15 0 12 3 -3 3 -1
14 4 23 7 13 5 22 -7 31 -10 8 -14 9 -10 2 4 -6 2 -15 -4 -19 -8 -4 -7 -9 2
-16 11 -8 11 -9 -1 -5 -8 2 -14 12 -12 22 2 10 -1 14 -7 10 -6 -3 -11 -12 -11
-18 0 -7 -14 -13 -32 -13 -18 -1 -27 1 -21 3 10 4 9 8 -2 19 -18 18 -10 41 18
50 l20 6 -21 12 c-16 8 -18 15 -11 29 7 11 7 17 -1 17 -5 0 -10 -6 -10 -14 0
-9 -7 -13 -20 -11 -11 2 -23 -1 -26 -7 -5 -7 -2 -8 6 -3 8 5 11 4 6 -3 -4 -7
1 -10 14 -7 11 2 18 0 15 -5 -3 -6 2 -7 12 -4 15 5 15 4 3 -5 -9 -6 -19 -6
-24 -1 -4 4 -15 6 -22 3 -8 -3 -14 1 -14 8 0 11 -2 11 -10 -1 -5 -8 -12 -11
-16 -8 -3 4 6 18 20 31 32 30 33 36 1 33 -13 -2 -22 1 -19 5 3 5 1 9 -4 9 -5
0 -9 11 -9 25 0 25 0 25 23 10 13 -8 24 -11 24 -6 0 9 -29 23 -40 19 -3 -1
-15 4 -27 10 -14 8 -24 9 -28 2 -3 -5 -12 -10 -18 -9 -9 0 -9 2 1 6 6 2 12 9
12 14 0 6 -4 8 -9 5 -5 -3 -11 3 -14 14 -3 11 0 23 5 27 6 3 8 1 5 -4 -4 -6 0
-14 8 -17 13 -4 13 -2 5 14 -5 10 -15 22 -22 26 -7 4 -8 3 -4 -4 4 -7 2 -12
-3 -12 -6 0 -11 5 -11 10 0 6 -5 10 -11 10 -5 0 -8 -4 -5 -9 3 -5 -1 -12 -10
-15 -8 -3 -12 -2 -9 4 3 5 8 30 10 56 4 45 3 45 -16 28 -11 -10 -19 -12 -19
-6 0 7 4 12 9 12 5 0 11 7 15 15 3 8 2 14 -2 14 -21 -4 -32 2 -26 14 4 7 3 9
-2 4 -5 -5 -9 -14 -9 -20 0 -7 -11 -11 -23 -10 -13 2 -21 -1 -17 -6 10 -17
-12 -21 -26 -5 -15 19 -22 67 -8 58 6 -3 5 3 -2 14 -12 20 -13 20 -31 -2 -10
-11 -18 -16 -17 -11 3 24 -2 36 -13 29 -7 -4 -8 -3 -4 4 4 7 3 12 -3 12 -6 0
-8 8 -4 18 5 14 3 15 -8 5 -7 -7 -18 -13 -23 -13 -6 0 -5 4 3 9 17 11 6 32
-13 25 -7 -3 -16 2 -19 10 -4 10 -13 13 -24 10 -14 -5 -15 -4 -4 4 7 5 11 14
7 20 -3 6 0 13 6 16 7 3 2 3 -11 0 -14 -4 -27 -1 -32 7 -7 11 -9 10 -9 -3 0
-9 -5 -20 -12 -24 -6 -4 -8 -3 -5 3 4 6 0 13 -8 17 -8 3 -17 1 -20 -5 -4 -5
-11 -7 -16 -4 -5 4 -9 1 -9 -5 0 -6 -5 -8 -11 -4 -8 5 -8 9 1 14 8 5 7 9 -5
13 -11 5 -13 11 -7 24 13 25 4 43 -19 43 -11 0 -17 5 -14 10 3 6 -1 10 -9 10
-14 0 -14 -3 -4 -20 7 -11 17 -19 23 -17 6 1 10 -2 10 -8 0 -5 -8 -10 -17 -10
-9 -1 -14 3 -11 8 4 6 -3 8 -16 4 -18 -4 -20 -3 -10 9 9 11 9 14 0 14 -7 0 -9
4 -6 10 3 6 -1 7 -9 4 -11 -4 -16 0 -16 10 0 9 -5 16 -11 16 -8 0 -7 6 2 17
10 11 10 14 2 9 -7 -4 -13 -2 -13 3 0 6 -6 10 -12 8 -8 -1 -13 9 -12 25 0 15
-2 25 -5 23 -8 -4 -31 21 -25 27 2 3 -3 5 -11 5 -9 0 -11 -4 -6 -11 5 -6 8
-27 7 -48 0 -21 3 -34 9 -31 6 3 4 0 -3 -8 -11 -12 -14 -12 -22 1 -5 8 -6 18
-4 22 9 14 -22 38 -34 26 -6 -6 -12 -6 -17 3 -5 7 -4 10 2 6 6 -4 13 -1 16 6
3 7 -3 13 -13 13 -11 0 -17 -8 -16 -21 1 -14 8 -20 25 -20 17 0 25 -6 26 -21
1 -21 -26 -27 -42 -9 -5 4 -3 5 3 2 7 -4 14 -1 17 6 3 9 -2 13 -16 12 -12 -1
-28 2 -34 8 -15 11 -18 41 -3 32 6 -3 10 -1 10 4 0 14 -13 14 -27 0 -7 -7 -12
-6 -17 6 -3 9 -2 13 3 10 5 -3 12 -1 16 5 6 9 -7 14 -27 11 -5 0 -8 4 -8 9 0
6 5 10 10 10 6 0 10 4 10 10 0 5 -7 7 -15 3 -10 -3 -15 -1 -13 7 2 7 -4 15
-12 17 -13 4 -13 3 0 -6 8 -6 13 -11 10 -12 -38 -7 -53 -3 -67 18 -9 14 -22
22 -30 19 -8 -4 -11 -1 -8 5 4 6 -3 13 -15 16 -13 3 -19 11 -16 20 3 8 2 11
-3 8 -6 -3 -14 3 -20 12 -10 17 -10 17 -11 1 0 -10 -4 -18 -10 -18 -5 0 -10
-5 -10 -11 0 -8 5 -8 15 1 8 7 15 11 16 9 7 -34 6 -38 -4 -32 -15 9 -41 14
-33 6 3 -3 1 -15 -5 -27 -9 -20 -9 -20 5 -3 11 15 19 16 34 8 11 -6 23 -7 27
-3 5 4 5 1 1 -6 -4 -7 -1 -14 7 -18 22 -8 16 -31 -7 -28 -12 1 -23 3 -26 4 -3
1 -8 2 -12 1 -4 0 -5 6 -2 14 4 10 0 15 -11 15 -9 0 -14 -4 -10 -9 3 -5 0 -13
-6 -17 -7 -4 -9 -3 -5 4 3 6 -6 20 -20 31 -15 12 -21 21 -13 21 8 0 5 8 -9 20
-21 20 -37 27 -28 12 3 -5 -1 -9 -9 -9 -8 0 -12 4 -9 9 3 4 -6 7 -20 6 -15 -1
-26 -7 -26 -13 -1 -5 -8 1 -16 15 -8 14 -13 17 -10 8 3 -9 -2 -19 -10 -22 -22
-8 -22 -8 -27 12 -4 16 -5 16 -6 0 -1 -20 -16 -24 -27 -6 -5 7 -3 8 7 3 12 -7
12 -6 1 7 -19 23 -48 12 -30 -11 9 -11 6 -10 -9 3 -14 11 -29 16 -40 12 -9 -4
-14 -4 -10 0 9 9 -33 45 -44 38 -5 -3 -9 0 -9 7 0 8 -5 7 -17 -2 -11 -10 -14
-10 -9 -1 4 7 2 12 -4 12 -6 0 -8 5 -4 11 4 7 -1 7 -16 -1 -15 -8 -20 -8 -16
-1 4 6 0 11 -9 11 -10 0 -13 4 -8 13 4 6 -5 4 -21 -6 l-27 -18 12 23 c11 21
11 22 -4 9 -15 -12 -17 -11 -17 3 0 10 -5 14 -10 11 -6 -4 -8 -10 -5 -15 3 -4
-4 -6 -15 -3 -21 6 -25 13 -12 29 4 5 0 2 -8 -7 -16 -16 -53 -23 -44 -7 3 4
-2 8 -11 8 -9 0 -14 -4 -11 -8 3 -5 -1 -9 -9 -9 -8 0 -11 5 -8 10 4 6 0 8 -10
4 -10 -4 -17 -2 -17 4 0 6 -7 9 -15 5 -8 -3 -15 -1 -15 5 0 6 -10 10 -22 9
-37 -3 -50 -1 -43 9 3 5 1 13 -5 16 -6 4 -10 3 -9 -2 3 -18 -2 -27 -9 -16 -11
17 -119 25 -125 8 -3 -7 -1 -18 4 -24 5 -6 6 -9 3 -6 -4 3 -14 -1 -22 -8 -13
-10 -14 -9 -8 2 7 10 3 12 -13 6 -12 -3 -21 -2 -21 3 0 6 10 9 23 8 16 -2 23
2 23 16 0 22 0 22 -16 3z m64 -6 c10 15 29 14 23 -1 -2 -7 -10 -12 -16 -10 -6
1 -11 -3 -11 -8 0 -6 -6 -5 -14 2 -8 7 -12 17 -9 22 3 4 9 3 13 -4 5 -9 9 -9
14 -1z m-560 -75 c3 -8 2 -12 -4 -9 -6 3 -10 10 -10 16 0 14 7 11 14 -7z m980
-2 c3 -5 -1 -9 -9 -9 -8 0 -12 4 -9 9 3 4 7 8 9 8 2 0 6 -4 9 -8z m336 -102
c-24 -15 -36 -11 -14 4 10 8 21 12 24 10 2 -3 -2 -9 -10 -14z m260 -62 c0 -5
-5 -8 -11 -8 -5 0 -7 5 -4 10 3 6 1 10 -4 10 -6 0 -11 8 -11 17 0 15 2 14 15
-3 8 -10 15 -22 15 -26z m-2273 -3 c0 -8 -4 -12 -9 -9 -4 3 -8 0 -8 -5 0 -6
-5 -11 -10 -11 -6 0 -5 8 2 20 15 24 25 26 25 5z m2328 -20 c-4 -34 -5 -35
-17 -35 -9 0 -9 3 0 12 15 15 16 32 2 23 -5 -3 -10 -1 -10 5 0 6 -5 8 -12 4
-6 -4 -8 -3 -5 2 3 5 14 10 25 10 13 0 18 -6 17 -21z m-38 -11 c-3 -3 -12 -4
-19 -1 -8 3 -5 6 6 6 11 1 17 -2 13 -5z m-2372 -24 c-3 -5 -12 -10 -18 -10 -7
0 -6 4 3 10 19 12 23 12 15 0z m2603 -25 c-3 -3 -9 2 -12 12 -6 14 -5 15 5 6
7 -7 10 -15 7 -18z m-2815 -130 c-3 -9 -8 -14 -10 -11 -3 3 -2 9 2 15 9 16 15
13 8 -4z m-33 -19 c-14 -14 -13 -49 2 -40 7 5 8 3 3 -5 -5 -9 -10 -10 -18 -2
-7 7 -19 5 -38 -5 -25 -13 -28 -13 -23 1 6 14 17 19 29 13 6 -4 34 36 30 43
-2 3 3 6 11 6 10 0 11 -4 4 -11z m3070 -51 c0 -8 -4 -15 -10 -15 -5 0 -7 7 -4
15 4 8 8 15 10 15 2 0 4 -7 4 -15z m345 -244 c3 -5 0 -13 -6 -17 -7 -4 -9 -3
-5 4 3 5 0 13 -6 15 -9 4 -10 6 -1 6 6 1 14 -3 18 -8z m-3865 -41 c0 -5 -5
-10 -11 -10 -5 0 -7 5 -4 10 3 6 8 10 11 10 2 0 4 -4 4 -10z m3983 -106 c-3
-8 -6 -14 -7 -12 -1 2 -7 11 -14 20 -11 14 -10 16 7 11 12 -3 17 -11 14 -19z
m68 -127 c-10 -9 -11 -8 -5 6 3 10 9 15 12 12 3 -3 0 -11 -7 -18z m-4211 9 c0
-3 -4 -8 -10 -11 -5 -3 -10 -1 -10 4 0 6 5 11 10 11 6 0 10 -2 10 -4z m-86
-132 c3 -8 2 -12 -4 -9 -6 3 -10 10 -10 16 0 14 7 11 14 -7z m-38 -11 c-3 -3
0 -13 7 -22 11 -14 10 -15 -7 -1 -18 14 -19 13 -13 -2 3 -10 3 -17 -1 -16 -4
1 -17 -3 -29 -10 -14 -8 -24 -9 -28 -2 -3 5 -1 10 4 10 6 0 11 6 11 13 0 19
16 32 41 34 12 1 19 -1 15 -4z m4581 -98 c0 -8 -4 -12 -9 -9 -5 3 -6 10 -3 15
9 13 12 11 12 -6z m-4684 -174 c-12 -10 -19 -22 -15 -26 4 -5 1 -5 -7 0 -11 6
-9 12 10 26 31 24 41 24 12 0z m4891 -149 c3 -5 -1 -9 -9 -9 -8 0 -12 4 -9 9
3 4 7 8 9 8 2 0 6 -4 9 -8z m-5008 -128 c2 -12 -1 -13 -12 -3 -7 6 -11 16 -8
21 7 11 17 3 20 -18z m-13 -61 c-7 -2 -13 -9 -13 -14 0 -6 5 -7 12 -3 7 5 8 3
3 -5 -5 -9 -11 -9 -17 -3 -12 12 -2 32 15 31 9 0 9 -2 0 -6z m5117 -113 c13
-9 13 -10 0 -10 -8 0 -22 5 -30 10 -13 9 -13 10 0 10 8 0 22 -5 30 -10z
m-5140 -20 c0 -5 -4 -10 -10 -10 -5 0 -10 5 -10 10 0 6 5 10 10 10 6 0 10 -4
10 -10z m26 -249 c-5 -12 -2 -11 9 3 8 11 15 15 15 9 0 -7 -7 -18 -15 -27 -14
-14 -17 -14 -33 2 -16 15 -16 18 -3 29 20 14 34 6 27 -16z m54 -151 c0 -5 -2
-10 -4 -10 -3 0 -8 5 -11 10 -3 6 -1 10 4 10 6 0 11 -4 11 -10z m85 -130 c3
-6 -1 -7 -9 -4 -18 7 -21 14 -7 14 6 0 13 -4 16 -10z m5059 -181 c-3 -5 -10
-7 -15 -3 -5 3 -7 10 -3 15 3 5 10 7 15 3 5 -3 7 -10 3 -15z m21 -438 c3 -5 2
-12 -3 -15 -5 -3 -9 1 -9 9 0 17 3 19 12 6z m0 -111 c3 -6 -1 -7 -9 -4 -18 7
-21 14 -7 14 6 0 13 -4 16 -10z m-4874 -393 c-10 -9 -11 -8 -5 6 3 10 9 15 12
12 3 -3 0 -11 -7 -18z m52 -107 c3 -11 3 -20 1 -20 -2 0 -8 9 -14 20 -6 11 -7
20 -2 20 6 0 12 -9 15 -20z m5062 -960 c3 -5 1 -10 -4 -10 -6 0 -11 5 -11 10
0 6 2 10 4 10 3 0 8 -4 11 -10z m-50 -149 c3 -5 2 -12 -3 -15 -5 -3 -9 1 -9 9
0 17 3 19 12 6z m-4461 -1397 c5 -14 4 -15 -9 -4 -17 14 -19 20 -6 20 5 0 12
-7 15 -16z m4129 -209 c-3 -9 -8 -14 -10 -11 -3 3 -2 9 2 15 9 16 15 13 8 -4z
m-3923 -45 c0 -5 -2 -10 -4 -10 -3 0 -8 5 -11 10 -3 6 -1 10 4 10 6 0 11 -4
11 -10z m4738 -1185 c-3 -3 -9 2 -12 12 -6 14 -5 15 5 6 7 -7 10 -15 7 -18z
m457 -334 c3 -5 2 -12 -3 -15 -5 -3 -9 1 -9 9 0 17 3 19 12 6z m-5249 -59
c-17 -16 -18 -16 -5 5 7 12 15 20 18 17 3 -2 -3 -12 -13 -22z m-1226 -911 c0
-5 -7 -12 -16 -15 -14 -5 -15 -4 -4 9 14 17 20 19 20 6z m-193 -116 c0 -8 -4
-12 -9 -9 -5 3 -6 10 -3 15 9 13 12 11 12 -6z m8226 -90 c-3 -9 -8 -14 -10
-11 -3 3 -2 9 2 15 9 16 15 13 8 -4z m85 -70 c-3 -3 -9 2 -12 12 -6 14 -5 15
5 6 7 -7 10 -15 7 -18z m-8988 -125 c0 -5 -5 -10 -11 -10 -5 0 -7 5 -4 10 3 6
8 10 11 10 2 0 4 -4 4 -10z m9135 -1 c11 -16 1 -19 -13 -3 -7 8 -8 14 -3 14 5
0 13 -5 16 -11z m-10148 -994 c0 -8 -4 -12 -9 -9 -5 3 -6 10 -3 15 9 13 12 11
12 -6z m11383 -1191 c0 -8 -19 -13 -24 -6 -3 5 1 9 9 9 8 0 15 -2 15 -3z m-85
-2153 c3 -5 2 -12 -3 -15 -5 -3 -9 1 -9 9 0 17 3 19 12 6z m-151 -469 c3 -5
-1 -9 -9 -9 -8 0 -12 4 -9 9 3 4 7 8 9 8 2 0 6 -4 9 -8z m-12984 -3892 c0 -5
-2 -10 -4 -10 -3 0 -8 5 -11 10 -3 6 -1 10 4 10 6 0 11 -4 11 -10z m1060 -136
c0 -8 -4 -12 -10 -9 -5 3 -10 10 -10 16 0 5 5 9 10 9 6 0 10 -7 10 -16z m120
-30 c0 -8 -19 -13 -24 -6 -3 5 1 9 9 9 8 0 15 -2 15 -3z m2177 -31 c-4 -3 -2
-12 4 -19 7 -8 6 -14 -2 -20 -8 -4 -9 -3 -5 4 4 7 2 12 -3 12 -6 0 -11 7 -11
15 0 8 5 15 12 15 6 0 8 -3 5 -7z m9008 -2 c3 -5 2 -12 -3 -15 -5 -3 -9 1 -9
9 0 17 3 19 12 6z m-9285 -35 c0 -2 -7 -7 -16 -10 -8 -3 -12 -2 -9 4 6 10 25
14 25 6z m-220 -32 c0 -8 -19 -13 -24 -6 -3 5 1 9 9 9 8 0 15 -2 15 -3z
m-1240 -54 c0 -5 -2 -10 -4 -10 -3 0 -8 5 -11 10 -3 6 -1 10 4 10 6 0 11 -4
11 -10z m1737 -586 c-3 -3 -12 -4 -19 -1 -8 3 -5 6 6 6 11 1 17 -2 13 -5z"/>
<path d="M23905 33090 c-3 -5 -1 -10 4 -10 6 0 11 5 11 10 0 6 -2 10 -4 10 -3
0 -8 -4 -11 -10z"/>
<path d="M27006 34222 c-3 -5 1 -9 9 -9 8 0 12 4 9 9 -3 4 -7 8 -9 8 -2 0 -6
-4 -9 -8z"/>
<path d="M27035 34180 c-3 -5 -1 -10 4 -10 6 0 11 5 11 10 0 6 -2 10 -4 10 -3
0 -8 -4 -11 -10z"/>
<path d="M27147 34160 c-9 -11 -13 -20 -7 -20 5 0 14 9 20 20 6 11 9 20 8 20
-2 0 -11 -9 -21 -20z"/>
<path d="M27304 34158 l-19 -23 23 19 c12 11 22 21 22 23 0 8 -8 2 -26 -19z"/>
<path d="M26986 34158 c3 -5 10 -6 15 -3 13 9 11 12 -6 12 -8 0 -12 -4 -9 -9z"/>
<path d="M27075 34160 c-3 -5 -1 -10 4 -10 6 0 11 5 11 10 0 6 -2 10 -4 10 -3
0 -8 -4 -11 -10z"/>
<path d="M27107 34133 c5 -12 3 -14 -8 -8 -8 5 -7 1 4 -12 9 -11 14 -22 11
-25 -3 -3 -1 -8 4 -12 5 -3 9 0 9 7 0 7 3 19 7 27 4 9 -2 20 -14 27 -16 11
-18 10 -13 -4z"/>
<path d="M27353 34123 c1 -17 4 -19 14 -11 15 12 18 22 4 14 -5 -4 -11 0 -14
6 -3 7 -4 3 -4 -9z"/>
<path d="M27394 34095 c0 -13 3 -22 7 -19 8 4 6 30 -2 38 -3 3 -5 -5 -5 -19z"/>
<path d="M27435 34080 c3 -5 8 -10 11 -10 2 0 4 5 4 10 0 6 -5 10 -11 10 -5 0
-7 -4 -4 -10z"/>
<path d="M27177 34062 c12 -11 19 -23 15 -27 -4 -5 -1 -5 6 -1 15 9 8 23 -21
37 l-22 10 22 -19z"/>
<path d="M27415 34021 c-3 -5 -2 -12 3 -15 5 -3 9 1 9 9 0 17 -3 19 -12 6z"/>
<path d="M24860 33974 c0 -16 -2 -17 -10 -4 -6 9 -10 10 -10 3 0 -7 -9 -10
-21 -8 -20 4 -20 3 -5 -14 9 -9 16 -23 16 -29 0 -7 5 -12 10 -12 7 0 7 6 0 19
-9 17 -6 20 19 23 27 3 29 4 15 22 -14 20 -14 20 -14 0z"/>
<path d="M24772 33932 c-1 -24 0 -25 9 -9 7 11 7 23 2 28 -5 5 -9 -3 -11 -19z"/>
<path d="M24750 33911 c0 -7 -5 -9 -12 -5 -7 5 -8 3 -3 -5 5 -9 10 -10 18 -2
6 6 8 14 4 18 -4 3 -7 1 -7 -6z"/>
<path d="M27703 33802 c-9 -6 -7 -11 7 -20 12 -7 20 -8 20 -2 0 5 -5 10 -11
10 -5 0 -7 5 -4 10 7 12 4 12 -12 2z"/>
<path d="M27855 33780 c-3 -5 -1 -10 4 -10 6 0 11 5 11 10 0 6 -2 10 -4 10 -3
0 -8 -4 -11 -10z"/>
<path d="M24546 33762 c-3 -5 1 -9 9 -9 8 0 12 4 9 9 -3 4 -7 8 -9 8 -2 0 -6
-4 -9 -8z"/>
<path d="M27876 33761 c-4 -6 -14 -8 -24 -5 -13 5 -14 4 -4 -4 8 -5 14 -13 15
-18 1 -4 11 -9 21 -9 17 -2 18 -1 2 11 -13 9 -14 13 -4 17 7 2 10 7 7 11 -4 4
-10 3 -13 -3z"/>
<path d="M24500 33710 c-11 -7 -11 -10 -2 -10 7 0 11 -4 8 -8 -3 -5 3 -8 12
-7 9 0 17 5 17 10 0 6 -6 9 -13 7 -8 -2 -11 1 -7 7 8 13 4 14 -15 1z"/>
<path d="M27931 33680 c0 -8 4 -22 9 -30 12 -18 12 -2 0 25 -6 13 -9 15 -9 5z"/>
<path d="M28034 33622 c3 -5 1 -12 -6 -14 -14 -5 -1 -28 15 -27 8 0 8 2 -1 6
-9 4 -10 8 -2 18 8 10 8 15 -1 21 -7 4 -9 3 -5 -4z"/>
<path d="M24384 33606 c-3 -9 -10 -14 -14 -11 -5 3 -11 1 -15 -5 -4 -6 -11 -8
-16 -5 -5 4 -9 2 -9 -3 0 -5 -11 -15 -25 -22 -14 -7 -23 -15 -21 -18 3 -2 15
3 28 12 29 20 44 21 28 1 -7 -9 -10 -18 -7 -21 5 -5 33 37 29 44 -1 1 -2 5 -2
10 0 4 4 1 8 -6 7 -10 13 -8 26 7 11 12 14 21 7 26 -6 3 -14 -1 -17 -9z"/>
<path d="M27993 33603 c4 -6 2 -13 -4 -15 -7 -2 -6 -8 3 -16 12 -9 14 -8 13 8
-1 11 -5 23 -10 27 -4 5 -5 3 -2 -4z"/>
<path d="M28135 33520 c3 -5 8 -10 11 -10 2 0 4 5 4 10 0 6 -5 10 -11 10 -5 0
-7 -4 -4 -10z"/>
<path d="M24155 33440 c-3 -5 -1 -10 4 -10 6 0 11 5 11 10 0 6 -2 10 -4 10 -3
0 -8 -4 -11 -10z"/>
<path d="M28240 33360 c0 -15 26 -18 44 -5 16 12 15 14 -13 13 -17 -1 -31 -4
-31 -8z"/>
<path d="M28387 33319 c7 -7 15 -10 18 -7 3 3 -2 9 -12 12 -14 6 -15 5 -6 -5z"/>
<path d="M28336 33298 c3 -4 11 -5 19 -1 21 7 19 12 -4 10 -11 0 -18 -5 -15
-9z"/>
<path d="M28354 33255 c-4 -8 -11 -12 -17 -8 -6 4 -7 1 -2 -7 6 -10 11 -10 20
3 7 9 16 13 20 9 5 -4 5 -1 1 6 -9 16 -15 15 -22 -3z"/>
<path d="M28435 33241 c-3 -5 -2 -12 3 -15 5 -3 9 1 9 9 0 17 -3 19 -12 6z"/>
<path d="M28433 33184 c1 -21 27 -23 27 -2 0 5 -4 7 -9 4 -5 -4 -11 0 -14 6
-3 7 -4 3 -4 -8z"/>
<path d="M23893 33136 c0 -8 6 -12 14 -9 7 3 10 9 7 14 -8 14 -21 11 -21 -5z"/>
<path d="M28630 33020 c-13 -8 -12 -10 3 -10 9 0 17 5 17 10 0 12 -1 12 -20 0z"/>
<path d="M23810 33010 c-8 -5 -11 -10 -6 -10 6 0 1 -7 -10 -16 -18 -15 -18
-15 2 -5 12 6 24 7 28 3 4 -3 4 2 0 12 -6 15 -4 17 6 11 9 -5 11 -4 6 3 -9 14
-7 14 -26 2z"/>
<path d="M23810 32915 c0 -8 4 -15 8 -15 5 0 9 7 9 15 0 8 -4 15 -9 15 -4 0
-8 -7 -8 -15z"/>
<path d="M28651 32927 c2 -1 13 -9 24 -17 19 -14 19 -14 6 3 -7 9 -18 17 -24
17 -6 0 -8 -1 -6 -3z"/>
<path d="M28645 32896 c16 -11 17 -16 6 -29 -9 -11 -10 -21 -2 -35 6 -11 8
-22 5 -25 -3 -3 2 -4 12 -3 10 2 20 8 22 14 2 7 7 10 11 8 13 -9 34 12 28 28
-10 25 -57 0 -52 -27 3 -11 1 -17 -2 -13 -11 11 -11 55 0 53 5 -1 12 5 14 13
4 12 3 13 -5 1 -8 -11 -11 -9 -17 8 -3 11 -14 21 -23 21 -13 0 -13 -2 3 -14z
m67 -58 c-7 -7 -12 -8 -12 -2 0 14 12 26 19 19 2 -3 -1 -11 -7 -17z"/>
<path d="M28731 32805 c-1 -17 -3 -18 -11 -5 -8 13 -10 13 -10 -2 0 -9 5 -20
10 -23 6 -4 7 -12 3 -18 -5 -8 -2 -8 9 0 8 7 19 9 24 5 4 -4 3 0 -3 8 -6 8
-13 24 -16 35 l-5 20 -1 -20z"/>
<path d="M28820 32473 c0 -6 8 -17 18 -24 16 -13 16 -13 2 6 -8 11 -16 22 -17
24 -2 2 -3 0 -3 -6z"/>
<path d="M23650 32321 c0 -8 -8 -24 -17 -35 -10 -12 -14 -18 -9 -14 5 4 15 0
23 -10 13 -15 13 -15 3 5 -8 17 -7 24 4 30 11 6 12 13 6 23 -8 13 -10 13 -10
1z"/>
<path d="M28860 32266 c0 -2 7 -7 16 -10 8 -3 12 -2 9 4 -6 10 -25 14 -25 6z"/>
<path d="M23638 32208 c2 -10 7 -18 11 -18 4 0 7 8 7 18 0 10 -5 19 -12 19 -6
0 -9 -9 -6 -19z"/>
<path d="M23693 32211 c0 -11 5 -18 9 -15 4 3 5 11 1 19 -7 21 -12 19 -10 -4z"/>
<path d="M28866 32173 c-6 -14 -5 -15 5 -6 7 7 10 15 7 18 -3 3 -9 -2 -12 -12z"/>
<path d="M23756 31878 c3 -5 10 -6 15 -3 13 9 11 12 -6 12 -8 0 -12 -4 -9 -9z"/>
<path d="M23840 31790 c-9 -6 -10 -10 -3 -10 6 0 15 5 18 10 8 12 4 12 -15 0z"/>
<path d="M28930 30979 c0 -5 5 -7 10 -4 6 3 10 8 10 11 0 2 -4 4 -10 4 -5 0
-10 -5 -10 -11z"/>
<path d="M23990 30925 c0 -8 2 -15 4 -15 2 0 6 7 10 15 3 8 1 15 -4 15 -6 0
-10 -7 -10 -15z"/>
<path d="M24036 30675 c-3 -8 -1 -15 4 -15 6 0 10 7 10 15 0 8 -2 15 -4 15 -2
0 -6 -7 -10 -15z"/>
<path d="M29075 30681 c-3 -5 -2 -12 3 -15 5 -3 9 1 9 9 0 17 -3 19 -12 6z"/>
<path d="M24180 30140 c0 -5 5 -10 11 -10 5 0 7 5 4 10 -3 6 -8 10 -11 10 -2
0 -4 -4 -4 -10z"/>
<path d="M29190 29960 c0 -5 5 -10 10 -10 6 0 10 5 10 10 0 6 -4 10 -10 10 -5
0 -10 -4 -10 -10z"/>
<path d="M28709 28848 c-5 -18 -6 -38 -1 -34 7 8 12 36 6 36 -2 0 -4 -1 -5 -2z"/>
<path d="M24340 28819 c0 -5 5 -7 10 -4 6 3 10 8 10 11 0 2 -4 4 -10 4 -5 0
-10 -5 -10 -11z"/>
<path d="M24478 28393 c7 -3 16 -2 19 1 4 3 -2 6 -13 5 -11 0 -14 -3 -6 -6z"/>
<path d="M24515 28300 c3 -5 11 -10 16 -10 6 0 7 5 4 10 -3 6 -11 10 -16 10
-6 0 -7 -4 -4 -10z"/>
<path d="M28755 27940 c-3 -5 -1 -10 4 -10 6 0 11 5 11 10 0 6 -2 10 -4 10 -3
0 -8 -4 -11 -10z"/>
<path d="M28837 27829 c7 -7 15 -10 18 -7 3 3 -2 9 -12 12 -14 6 -15 5 -6 -5z"/>
<path d="M25279 26863 c-13 -16 -12 -17 4 -4 16 13 21 21 13 21 -2 0 -10 -8
-17 -17z"/>
<path d="M29715 26579 c-4 -6 -5 -12 -2 -15 2 -3 7 2 10 11 7 17 1 20 -8 4z"/>
<path d="M29800 26482 c0 -5 7 -15 15 -22 8 -7 15 -9 15 -6 0 4 -7 14 -15 22
-8 9 -15 11 -15 6z"/>
<path d="M24716 26187 c3 -10 9 -15 12 -12 3 3 0 11 -7 18 -10 9 -11 8 -5 -6z"/>
<path d="M30320 26121 c0 -6 4 -13 10 -16 6 -3 7 1 4 9 -7 18 -14 21 -14 7z"/>
<path d="M24475 25880 c-3 -5 -1 -10 4 -10 6 0 11 5 11 10 0 6 -2 10 -4 10 -3
0 -8 -4 -11 -10z"/>
<path d="M30946 25678 c3 -5 10 -6 15 -3 13 9 11 12 -6 12 -8 0 -12 -4 -9 -9z"/>
<path d="M24126 25573 c-6 -14 -5 -15 5 -6 7 7 10 15 7 18 -3 3 -9 -2 -12 -12z"/>
<path d="M31387 25349 c7 -7 15 -10 18 -7 3 3 -2 9 -12 12 -14 6 -15 5 -6 -5z"/>
<path d="M23194 25194 c-18 -14 -18 -15 4 -4 12 6 22 13 22 15 0 8 -5 6 -26
-11z"/>
<path d="M22336 24668 c3 -5 10 -6 15 -3 13 9 11 12 -6 12 -8 0 -12 -4 -9 -9z"/>
<path d="M22040 24401 c0 -7 -5 -9 -12 -5 -7 5 -8 3 -3 -5 5 -9 10 -10 18 -2
6 6 8 14 4 18 -4 3 -7 1 -7 -6z"/>
<path d="M21340 23339 c0 -5 5 -7 10 -4 6 3 10 8 10 11 0 2 -4 4 -10 4 -5 0
-10 -5 -10 -11z"/>
<path d="M32987 23079 c7 -7 15 -10 18 -7 3 3 -2 9 -12 12 -14 6 -15 5 -6 -5z"/>
<path d="M20733 21725 c0 -8 4 -12 9 -9 5 3 6 10 3 15 -9 13 -12 11 -12 -6z"/>
<path d="M32586 19362 c-3 -5 1 -9 9 -9 8 0 12 4 9 9 -3 4 -7 8 -9 8 -2 0 -6
-4 -9 -8z"/>
<path d="M32510 19220 c0 -5 5 -10 11 -10 5 0 7 5 4 10 -3 6 -8 10 -11 10 -2
0 -4 -4 -4 -10z"/>
<path d="M20945 16089 c-4 -6 -5 -12 -2 -15 2 -3 7 2 10 11 7 17 1 20 -8 4z"/>
<path d="M22236 15933 c-6 -14 -5 -15 5 -6 7 7 10 15 7 18 -3 3 -9 -2 -12 -12z"/>
<path d="M21881 15864 c0 -11 3 -14 6 -6 3 7 2 16 -1 19 -3 4 -6 -2 -5 -13z"/>
</g>
</svg>
